<svg xmlns="http://www.w3.org/2000/svg" x="0px" y="0px"
width="128" height="128"
viewBox="0 0 172 172"
style=" fill:#000000;"><g fill="none" fill-rule="nonzero" stroke="none" stroke-width="1" stroke-linecap="butt" stroke-linejoin="miter" stroke-miterlimit="10" stroke-dasharray="" stroke-dashoffset="0" font-family="none" font-weight="none" font-size="none" text-anchor="none" style="mix-blend-mode: normal"><path d="M0,172v-172h172v172z" fill="none"></path><g><path d="M140.2875,123.0875l-49.58437,-86.5375c-2.15,-3.7625 -7.525,-3.7625 -9.675,-0.13437l-8.33125,13.84063l41.79062,72.83125z" fill="#e67e22"></path><path d="M44.20938,144.99063h98.9c4.3,0 6.9875,-4.56875 4.8375,-8.19687l-7.65938,-13.70625h-83.17812z" fill="#f1c40f"></path><path d="M28.35313,144.99063h15.85625l41.79062,-71.35312l-13.30312,-23.38125l-49.18125,86.5375c-2.15,3.62812 0.67188,8.19687 4.8375,8.19687z" fill="#ecf0f1"></path><path d="M143.5125,149.15625h-115.025c-3.49375,0 -6.58438,-1.74687 -8.33125,-4.8375c-1.74687,-2.95625 -1.74687,-6.58437 0,-9.54062l57.5125,-100.37813c1.74687,-3.09063 4.8375,-4.8375 8.33125,-4.8375c3.49375,0 6.58438,1.74687 8.33125,4.8375l57.5125,100.37813c1.74687,2.95625 1.74687,6.58437 0,9.54062c-1.74687,3.09063 -4.8375,4.8375 -8.33125,4.8375zM86,37.625c-0.40313,0 -0.94062,0.13437 -1.34375,0.80625l-57.5125,100.37813c-0.40313,0.67188 -0.13438,1.20937 0,1.47812c0.13438,0.26875 0.5375,0.80625 1.34375,0.80625h115.15937c0.80625,0 1.20938,-0.5375 1.34375,-0.80625c0.13438,-0.26875 0.40313,-0.80625 0,-1.47812l-57.64687,-100.37813c-0.40313,-0.67187 -0.94062,-0.80625 -1.34375,-0.80625z" fill="#5536ca"></path><path d="M114.75625,126.98438v0h-57.5125c-1.47812,0 -2.82187,-0.80625 -3.49375,-2.01562c-0.67187,-1.20938 -0.67187,-2.82187 0,-4.03125l28.75625,-50.12187c0.67188,-1.20937 2.01563,-2.01562 3.49375,-2.01562c1.47812,0 2.82187,0.80625 3.49375,2.01563l28.4875,49.85313c0.5375,0.67188 0.80625,1.47812 0.80625,2.41875c0,2.15 -1.74688,3.89687 -4.03125,3.89687zM64.23125,118.92188h43.5375l-21.76875,-38.02813z" fill="#5536ca"></path><path d="M50.39063,138.40625c-0.67187,0 -1.34375,-0.13438 -2.01562,-0.5375c-1.88125,-1.075 -2.55313,-3.62813 -1.47812,-5.50938l35.60937,-61.54375c1.075,-1.88125 3.62812,-2.55312 5.50938,-1.47812c1.88125,1.075 2.55313,3.62812 1.47812,5.50937l-35.60937,61.54375c-0.80625,1.34375 -2.15,2.01563 -3.49375,2.01563z" fill="#5536ca"></path><path d="M114.75625,126.98438c-1.34375,0 -2.6875,-0.67187 -3.49375,-2.01562l-35.07188,-60.7375c-1.075,-1.88125 -0.40312,-4.43438 1.47813,-5.50938c1.88125,-1.075 4.43438,-0.40312 5.50938,1.47812l35.07187,60.7375c1.075,1.88125 0.40313,4.43438 -1.47812,5.50937c-0.67187,0.40313 -1.34375,0.5375 -2.01562,0.5375z" fill="#5536ca"></path><path d="M127.925,126.98438h-70.68125c-2.28437,0 -4.03125,-1.74688 -4.03125,-4.03125c0,-2.28437 1.74688,-4.03125 4.03125,-4.03125h70.68125c2.28437,0 4.03125,1.74688 4.03125,4.03125c0,2.28437 -1.74688,4.03125 -4.03125,4.03125z" fill="#5536ca"></path></g></g></svg>