<?xml version="1.0" encoding="utf-8"?>
<!-- Generator: Adobe Illustrator 16.0.0, SVG Export Plug-In . SVG Version: 6.00 Build 0)  -->
<!DOCTYPE svg PUBLIC "-//W3C//DTD SVG 1.1//EN" "http://www.w3.org/Graphics/SVG/1.1/DTD/svg11.dtd">
<svg version="1.1" id="Layer_1" xmlns="http://www.w3.org/2000/svg" xmlns:xlink="http://www.w3.org/1999/xlink" x="0px" y="0px"
	 width="196.763px" height="100.658px" viewBox="0 0 196.763 100.658" enable-background="new 0 0 196.763 100.658"
	 xml:space="preserve">
<g>
	<path fill="#E92328" d="M164.66,9.975l-2.864,2.974c4.406-0.288,11.182,0.099,15.574,0.876c0,0-4.142,1.517-8.104,4.272
		c2.427-0.032,4.525-0.227,5.088-0.63c0.532-0.357,3.46-3.789,4.932-5.682C174.994,10.669,169.252,10.029,164.66,9.975
		 M160.118,3.333c-1.698,1.591-4.223,4.318-6.751,7.284c-10.928,1.186-19.991,4.108-34.921,10.007l10.422,1.822
		c9.423-4.511,20.513-8.575,30.588-9.271c1.425-3.72,3.522-8.58,6.617-13.174C166.073,0,162.178,2.066,160.118,3.333 M0,55.094
		l10.71,1.03c36.102-0.563,60.381-5.188,102.354-24.811c5.755-2.688,10.883-4.921,12.676-5.526
		c3.966,0.038,10.348,1.32,15.512,2.117c-2.717-1.379-7.971-3.491-10.834-4.698c-3.549,0.19-10.847,0.502-13.632,0.637
		c-2.158,0.907-4.115,1.8-6.671,2.973C59.483,49.799,31.873,55.301,0,55.094 M182.975,12.949c3.247,0.512,6.921,1.841,9.863,3.506
		c-4.095-0.932-9.961-1.761-14.385-1.871C178.454,14.584,181.278,13.349,182.975,12.949"/>
	<path fill="#010101" d="M74.287,88.693c0.313-2.417,1.86-4.01,4.38-4.01c2.632,0,4.276,1.539,4.313,4.01H74.287z M78.881,81.498
		c-5.106,0-8.841,3.568-8.841,8.903c0,5.342,3.926,8.914,9.589,8.914c1.669,0,3.214-0.292,4.531-0.834l2.416-4.061l-0.323-0.162
		c-2.093,1.102-4.284,1.644-6.236,1.644c-2.931,0-5.442-1.481-5.73-4.017h12.93v-1.159C87.217,84.833,83.612,81.498,78.881,81.498"
		/>
	<path fill="#010101" d="M165.531,88.693c0.328-2.417,1.874-4.01,4.382-4.01c2.631,0,4.274,1.539,4.309,4.01H165.531z
		 M170.136,81.498c-5.117,0-8.843,3.568-8.843,8.903c0,5.342,3.925,8.914,9.579,8.914c1.671,0,3.223-0.292,4.534-0.834l2.417-4.061
		l-0.322-0.162c-2.095,1.102-4.273,1.644-6.243,1.644c-2.922,0-5.433-1.481-5.728-4.017h12.937
		C179.01,85.259,175.441,81.498,170.136,81.498"/>
	<path fill="#010101" d="M104.39,88.693c0.322-2.417,1.871-4.01,4.383-4.01c2.628,0,4.279,1.539,4.305,4.01H104.39z M108.983,81.498
		c-5.1,0-8.832,3.568-8.832,8.903c0,5.342,3.925,8.914,9.579,8.914c1.671,0,3.219-0.292,4.53-0.834l2.423-4.061l-0.332-0.162
		c-2.05,1.102-4.243,1.644-6.236,1.644c-2.935,0-5.431-1.481-5.725-4.017h12.933C117.87,85.259,114.301,81.498,108.983,81.498"/>
	<path fill="#010101" d="M13.078,95.072H8.989V87.87h4.251c3.6,0,5.305,0.895,5.305,3.534
		C18.545,94.675,15.361,95.072,13.078,95.072 M8.989,77.691h3.671c2.474,0,3.244,0.325,3.983,1.071
		c0.58,0.539,0.84,1.288,0.84,2.159c0,0.789-0.296,1.508-0.876,2.07c-0.735,0.723-1.732,1.048-3.565,1.048H8.989V77.691z
		 M17.574,85.707v-0.067c2.61-0.77,4.345-2.664,4.345-5.471c0-4.568-3.859-6.311-7.656-6.311H5.135H1.498v0.39l1.284,1.098
		c1.543,1.251,1.742,1.481,1.742,2.597v20.922h9c4.729,0,9.465-1.678,9.465-7.104C22.988,88.53,20.732,86.063,17.574,85.707"/>
	<path fill="#010101" d="M29.295,73.648c-1.552,0-2.681,1.183-2.681,2.535c0,1.314,1.129,2.535,2.681,2.535
		c1.566,0,2.763-1.078,2.763-2.535C32.058,74.732,30.861,73.648,29.295,73.648"/>
	<path fill="#010101" d="M24.942,82.196l0.653,0.552c1.534,1.159,1.602,1.387,1.602,2.8v13.316h4.243V81.941h-6.498V82.196z"/>
	<path fill="#010101" d="M57.818,95.482c-3.092,0-4.954-2.438-4.954-5.081c0-2.641,1.862-5.084,4.954-5.084
		c3.123,0,4.992,2.443,4.992,5.084C62.81,93.044,60.941,95.482,57.818,95.482 M59.943,73.125l1.354,0.871
		c1.176,0.766,1.373,1.118,1.373,2.217v7.884h-0.096c-0.902-1.122-2.596-2.6-5.751-2.6c-4.855,0-8.203,3.888-8.203,8.903
		c0,5.017,3.151,8.914,8.362,8.914c2.377,0,4.598-0.936,5.828-2.993h0.057l0.446,2.542h3.604V72.834h-6.974V73.125z"/>
	<path fill="#010101" d="M149.101,95.482c-3.127,0-4.98-2.438-4.98-5.081c0-2.641,1.854-5.084,4.98-5.084
		c3.118,0,4.979,2.443,4.979,5.084C154.08,93.044,152.219,95.482,149.101,95.482 M151.063,73.125l0.581,0.42
		c2.051,1.285,2.281,1.641,2.281,3.864v6.688h-0.095c-0.874-1.122-2.576-2.6-5.762-2.6c-4.819,0-8.162,3.888-8.162,8.903
		c0,5.017,3.115,8.914,8.358,8.914c2.346,0,4.565-0.936,5.814-2.993h0.067l0.453,2.542h3.565V72.834h-7.103V73.125z"/>
	<path fill="#010101" d="M191.17,81.498c-2.254,0-4.114,1.186-5.009,3.121h-0.075v-2.711h-7.168l0.027,0.192l1.067,0.712
		c1.701,1.099,1.83,1.424,1.83,3.539v12.513h4.243v-9.073c0-0.901,0.553-4.243,4.535-4.243c0.678,0,1.359,0.136,2.058,0.288v-4.088
		C192.198,81.616,191.689,81.498,191.17,81.498"/>
	<path fill="#010101" d="M95.385,78.799c0-2.969,2.607-3.837,6.013-2.484l0.196-0.196l-0.966-3.569
		c-6.489-1.309-9.522,1.604-9.522,6.213v3.088h-4.108v0.247l2.15,1.772c1.673,1.325,1.958,1.641,1.958,3.061v11.934h4.279V85.487
		h3.929V81.85h-3.929V78.799z"/>
	<path fill="#010101" d="M130.512,81.498c-1.868,0-3.993,0.932-5.409,3.026h-0.058v-2.583h-3.61v-0.033h-3.312V82.1l1.064,0.712
		c1.707,1.099,1.827,1.424,1.827,3.539v12.513h4.25v-9.232c0-2.257,1.095-4.314,3.864-4.314c2.989,0,3.439,2.254,3.439,4.121v9.426
		h4.244v-10.68C136.813,84.256,134.498,81.498,130.512,81.498"/>
	<path fill="#010101" d="M41.606,93.201v-7.653h4.54v-3.606h-4.54v-4.918h-2.669l-1.579,4.918h-4.082v0.193l1.508,1.322
		c2.38,1.955,2.573,1.891,2.573,2.992v-0.901v7.778c0,5.538,3.897,6.528,7.335,5.6l2.096-3.376l-0.13-0.067
		C43.701,96.356,41.606,96.261,41.606,93.201"/>
</g>
</svg>
