<?xml version="1.0" encoding="utf-8"?>
<!-- Generator: Adobe Illustrator 16.0.0, SVG Export Plug-In . SVG Version: 6.00 Build 0)  -->
<!DOCTYPE svg PUBLIC "-//W3C//DTD SVG 1.1//EN" "http://www.w3.org/Graphics/SVG/1.1/DTD/svg11.dtd">
<svg xmlns="http://www.w3.org/2000/svg" viewBox="0 0 125.4 66.7">
  <path fill="#989898" d="M93.9 27.7H28.7c-.8 0-1.4-.6-1.4-1.4s.6-1.4 1.4-1.4h65.2c.8 0 1.4.6 1.4 1.4s-.6 1.4-1.4 1.4z"></path>
  <path fill="#F15B2D" d="M93.9 22.1H28.7c-.8 0-1.4-.6-1.4-1.4 0-.8.6-1.4 1.4-1.4h65.2c.8 0 1.4.6 1.4 1.4 0 .8-.6 1.4-1.4 1.4z"></path>
  <path fill="#6AC2BF" d="M93.9 33.3H28.7c-.8 0-1.4-.6-1.4-1.4s.6-1.4 1.4-1.4h65.2c.8 0 1.4.6 1.4 1.4s-.6 1.4-1.4 1.4z"></path>
  <path class="logo-change" fill="#5A5A5D" d="M48.2 44.4c0-4.8 3.7-8.9 8.8-8.9 5.1 0 8.8 4 8.8 8.7v.1c0 4.8-3.8 8.8-8.8 8.8-5.1 0-8.8-4-8.8-8.7zm15 0c0-3.7-2.7-6.7-6.3-6.7-3.7 0-6.2 3-6.2 6.5v.1c0 3.6 2.7 6.6 6.2 6.6 3.8 0 6.3-3 6.3-6.5zM68.2 37c0-.7.6-1.3 1.2-1.3.7 0 1.3.6 1.3 1.3v1.7c1.1-1.7 2.6-3.2 5.4-3.2 2.7 0 4.5 1.5 5.4 3.4 1.2-1.9 3-3.4 5.9-3.4 3.9 0 6.3 2.6 6.3 6.8v9.3c0 .7-.6 1.3-1.2 1.3-.7 0-1.3-.6-1.3-1.3v-8.7c0-3.3-1.6-5.1-4.4-5.1-2.5 0-4.6 1.9-4.6 5.2v8.6c0 .7-.6 1.3-1.3 1.3-.7 0-1.2-.6-1.2-1.3v-8.8c0-3.2-1.7-5-4.3-5-2.7 0-4.7 2.2-4.7 5.3v8.5c0 .7-.5 1.3-1.2 1.3s-1.3-.6-1.3-1.3V37zM98.8 38.1h-1.4c-.6 0-1.1-.5-1.1-1.1 0-.6.5-1.1 1.1-1.1h1.4V19.7c0-1.9.5-3.4 1.5-4.3.8-.8 2.1-1.3 3.6-1.3.8 0 2.2.1 2.7.2s.9.5.9 1.1c0 .7-.6 1.1-1.2 1.1-.4-.1-1.6-.2-2.1-.2-2 0-2.9 1.2-2.9 3.6V36h4.4c.6 0 1.1.5 1.1 1.1 0 .6-.5 1.1-1.1 1.1h-4.3v13.5c0 .7-.5 1.3-1.2 1.3s-1.3-.6-1.3-1.3V38.1zM125.4 37.1c0 .2-.1.4-.1.6l-6.6 15.7c-.3.6-.5 1.1-.8 1.6l-3.7 8.5c-1.3 2.3-2.8 3.2-4.9 3.2-1.1 0-1.9-.2-2.8-.5-.4-.2-.8-.5-.8-1.1 0-.6.5-1.1 1.1-1.1.2 0 .4.1.6.1.5.2 1 .3 1.8.3 1.2 0 2-.6 2.8-1.8l3.7-8.5c.2-.3.4-.7.6-1.2l.1-.3-7-14.9c-.1-.2-.2-.5-.2-.7 0-.7.6-1.2 1.3-1.2.7 0 1 .4 1.3 1l5.9 13.2 5.2-13.3c.2-.5.6-.9 1.2-.9.7 0 1.3.6 1.3 1.3z"></path>
  <path class="logo-change" fill="#595A5C" d="M46 44.7c0 .3-.1.7-.4.9-6.1 5.7-12 8.1-19.7 8.1C11.1 53.8 0 42.3 0 27v-.2C0 11.8 11.4 0 26 0c9.3 0 14.7 3.5 19.1 7.3.6.6.6 1 .6 1.2 0 .7-.7 1.4-1.5 1.4-.4 0-.8-.2-1-.4-5.3-4.9-10.7-7-17.3-7C13 2.4 3 13.1 3 26.7v.2c0 13.7 10.1 24.5 23 24.5 6.9 0 12.2-2.3 17.7-7.5.3-.3.6-.4 1-.4.6-.1 1.3.5 1.3 1.2z"></path>
</svg>
