<svg xmlns="http://www.w3.org/2000/svg" x="0px" y="0px" width="{{ .size | default 24 }}" height="{{ .size | default 24 }}" viewBox="0 -8 172 172" style=" fill:#000000;">
    <g transform="translate(3.784,3.784) scale(0.956,0.956)">
        <g fill="none" fill-rule="nonzero" font-family="none" font-size="none" font-weight="none" stroke="none" stroke-dasharray="" stroke-dashoffset="0" stroke-linecap="butt" stroke-linejoin="none" stroke-miterlimit="10" stroke-width="none" style="mix-blend-mode: normal" text-anchor="none">
            <g stroke="none" stroke-linejoin="round" stroke-width="14" id="pcb-logo-border">
                <path d="M153.1875,24.1875v123.625c0,2.95625 -2.41875,5.375 -5.375,5.375h-123.625c-2.95625,0 -5.375,-2.41875 -5.375,-5.375v-123.625c0,-2.95625 2.41875,-5.375 5.375,-5.375h123.625c2.95625,0 5.375,2.41875 5.375,5.375z" fill="#72caaf"/>
                <path d="M136.68625,57.5125c-1.20937,6.31563 -5.805,11.66375 -11.85188,13.8675c-3.57438,1.29 -6.9875,1.45125 -10.13188,0.83313c-1.80062,-0.34938 -3.655,0.13437 -4.945,1.45125l-36.09312,36.09313c-1.31687,1.29 -1.80062,3.14438 -1.45125,4.945c0.5375,2.6875 0.48375,5.59 -0.34937,8.57313c-2.0425,7.36375 -8.54625,12.9 -16.15188,13.67937c-11.9325,1.20937 -21.87625,-8.73437 -20.66688,-20.66688c0.7525,-7.60562 6.31563,-14.10937 13.67938,-16.15187c2.98313,-0.83313 5.88563,-0.88688 8.57313,-0.34938c1.80063,0.34938 3.655,-0.13437 4.945,-1.45125l36.09313,-36.09313c1.31688,-1.29 1.80063,-3.14437 1.45125,-4.945c-0.5375,-2.6875 -0.48375,-5.59 0.34938,-8.57313c2.0425,-7.36375 8.54625,-12.92687 16.15187,-13.67937c12.52375,-1.29 22.87062,9.75563 20.39813,22.4675zM59.125,118.25c0,-2.95625 -2.41875,-5.375 -5.375,-5.375c-2.95625,0 -5.375,2.41875 -5.375,5.375c0,2.95625 2.41875,5.375 5.375,5.375c2.95625,0 5.375,-2.41875 5.375,-5.375zM123.625,53.75c0,-2.95625 -2.41875,-5.375 -5.375,-5.375c-2.95625,0 -5.375,2.41875 -5.375,5.375c0,2.95625 2.41875,5.375 5.375,5.375c2.95625,0 5.375,-2.41875 5.375,-5.375zM153.1875,141.76563v6.04688c0,2.95625 -2.41875,5.375 -5.375,5.375h-6.04687l-15.02313,-15.02313c-1.29,-1.31688 -3.14438,-1.80063 -4.945,-1.45125c-2.6875,0.5375 -5.59,0.48375 -8.57313,-0.34938c-7.36375,-2.0425 -12.9,-8.54625 -13.67937,-16.15187c-1.20938,-11.9325 8.73438,-21.87625 20.66687,-20.66688c7.60562,0.7525 14.10938,6.31563 16.15187,13.67938c0.83313,2.98313 0.88688,5.88563 0.34938,8.57313c-0.34938,1.80062 0.13438,3.655 1.45125,4.945zM123.625,118.25c0,-2.95625 -2.41875,-5.375 -5.375,-5.375c-2.95625,0 -5.375,2.41875 -5.375,5.375c0,2.95625 2.41875,5.375 5.375,5.375c2.95625,0 5.375,-2.41875 5.375,-5.375zM49.9875,72.18625c-6.31563,-1.20937 -11.66375,-5.805 -13.8675,-11.85187c-1.29,-3.57437 -1.45125,-6.9875 -0.83313,-10.13188c0.34938,-1.80063 -0.13437,-3.655 -1.45125,-4.945l-15.02312,-15.02312v-6.04687c0,-2.95625 2.41875,-5.375 5.375,-5.375h6.04688l15.02313,15.02313c1.29,1.31687 3.14437,1.80062 4.945,1.45125c2.6875,-0.5375 5.59,-0.48375 8.57313,0.34938c7.36375,2.0425 12.92687,8.54625 13.67937,16.15188c1.29,12.52375 -9.75563,22.87062 -22.4675,20.39813zM59.125,53.75c0,-2.95625 -2.41875,-5.375 -5.375,-5.375c-2.95625,0 -5.375,2.41875 -5.375,5.375c0,2.95625 2.41875,5.375 5.375,5.375c2.95625,0 5.375,-2.41875 5.375,-5.375z" fill="#f9dd8f"/>
                <path d="M155.875,24.1875v123.625c0,4.44512 -3.61738,8.0625 -8.0625,8.0625h-123.625c-4.44513,0 -8.0625,-3.61738 -8.0625,-8.0625v-123.625c0,-4.44513 3.61737,-8.0625 8.0625,-8.0625h123.625c4.44513,0 8.0625,3.61737 8.0625,8.0625zM150.5,91.375c-1.48619,0 -2.6875,-1.20131 -2.6875,-2.6875v-5.375c0,-1.48619 1.20131,-2.6875 2.6875,-2.6875v-56.4375c0,-1.4835 -1.204,-2.6875 -2.6875,-2.6875h-111.10931l10.449,10.44631c0.62619,0.62888 1.57756,0.88688 2.54237,0.70144c3.25456,-0.63962 6.55212,-0.50525 9.80937,0.39506c8.46831,2.34887 14.75169,9.77444 15.63319,18.47388c0.65844,6.493 -1.59637,12.84625 -6.18394,17.4365c-4.06619,4.0635 -9.51375,6.29681 -15.21931,6.29681c-0.73369,0 -1.47544,-0.04031 -2.21988,-0.11287c-8.69944,-0.8815 -16.125,-7.16488 -18.47387,-15.63319c-0.90031,-3.25456 -1.032,-6.55481 -0.39506,-9.81206c0.18812,-0.96213 -0.07525,-1.9135 -0.70144,-2.53969l-6.97138,-6.97406c-1.05081,-1.05081 -1.05081,-2.74931 0,-3.80013c1.05081,-1.05081 2.74931,-1.05081 3.80013,0l6.97137,6.97406c1.89738,1.89469 2.709,4.64937 2.17688,7.37181c-0.47837,2.43219 -0.37625,4.902 0.301,7.34225c1.76031,6.35325 7.31806,11.06444 13.83256,11.72288c4.89125,0.51062 9.6535,-1.19594 13.09619,-4.63594c3.44269,-3.44269 5.13312,-8.21569 4.63594,-13.09619c-0.65844,-6.51181 -5.36962,-12.07225 -11.72288,-13.83256c-2.43487,-0.67994 -4.90737,-0.78206 -7.33956,-0.301c-2.71438,0.52944 -5.47981,-0.28487 -7.3745,-2.17688l-14.24912,-14.24644h-4.91275c-1.4835,0 -2.6875,1.204 -2.6875,2.6875v56.4375c1.48619,0 2.6875,1.20131 2.6875,2.6875v5.375c0,1.48619 -1.20131,2.6875 -2.6875,2.6875v56.4375c0,1.4835 1.204,2.6875 2.6875,2.6875h111.10931l-10.44363,-10.449c-0.62619,-0.62887 -1.57487,-0.88688 -2.54237,-0.70144c-3.8485,0.75519 -7.73463,0.43806 -11.55088,-0.95406c-6.98212,-2.54506 -12.19319,-8.62956 -13.59338,-15.88044c-1.33031,-6.84775 0.57244,-13.69281 5.20838,-18.76412c4.63594,-5.07131 11.22569,-7.58681 18.11106,-6.88806c8.69944,0.8815 16.12231,7.16488 18.47119,15.63319c0.90031,3.25456 1.032,6.55481 0.39506,9.81206c-0.18813,0.96212 0.07525,1.9135 0.70144,2.53969l6.97137,6.97406c1.05081,1.05081 1.05081,2.74931 0,3.80013c-1.05081,1.05081 -2.74931,1.05081 -3.80012,0l-6.97138,-6.97406c-1.89738,-1.89469 -2.709,-4.64938 -2.17687,-7.37181c0.47837,-2.43219 0.37625,-4.902 -0.301,-7.34225c-1.76031,-6.35325 -7.31806,-11.06444 -13.82987,-11.72288c-5.17344,-0.52944 -10.12381,1.35988 -13.60412,5.16537c-3.48031,3.80819 -4.902,8.95475 -3.90225,14.12013c1.04544,5.40994 4.93962,9.94912 10.15875,11.85187c2.87831,1.04544 5.79425,1.29538 8.67794,0.72831c2.71706,-0.53213 5.47981,0.28219 7.3745,2.17687l14.24912,14.24644h4.91275c1.4835,0 2.6875,-1.204 2.6875,-2.6875z" fill="#8d6c9f"/>
                <path d="M126.3125,53.75c0,4.44512 -3.61738,8.0625 -8.0625,8.0625c-4.44512,0 -8.0625,-3.61738 -8.0625,-8.0625c0,-4.44512 3.61738,-8.0625 8.0625,-8.0625c4.44513,0 8.0625,3.61738 8.0625,8.0625zM120.9375,53.75c0,-1.4835 -1.204,-2.6875 -2.6875,-2.6875c-1.4835,0 -2.6875,1.204 -2.6875,2.6875c0,1.4835 1.204,2.6875 2.6875,2.6875c1.4835,0 2.6875,-1.204 2.6875,-2.6875zM126.3125,118.25c0,4.44512 -3.61738,8.0625 -8.0625,8.0625c-4.44512,0 -8.0625,-3.61738 -8.0625,-8.0625c0,-4.44512 3.61738,-8.0625 8.0625,-8.0625c4.44513,0 8.0625,3.61738 8.0625,8.0625zM120.9375,118.25c0,-1.4835 -1.204,-2.6875 -2.6875,-2.6875c-1.4835,0 -2.6875,1.204 -2.6875,2.6875c0,1.4835 1.204,2.6875 2.6875,2.6875c1.4835,0 2.6875,-1.204 2.6875,-2.6875zM45.6875,53.75c0,-4.44512 3.61738,-8.0625 8.0625,-8.0625c4.44512,0 8.0625,3.61738 8.0625,8.0625c0,4.44512 -3.61738,8.0625 -8.0625,8.0625c-4.44512,0 -8.0625,-3.61738 -8.0625,-8.0625zM51.0625,53.75c0,1.4835 1.204,2.6875 2.6875,2.6875c1.4835,0 2.6875,-1.204 2.6875,-2.6875c0,-1.4835 -1.204,-2.6875 -2.6875,-2.6875c-1.4835,0 -2.6875,1.204 -2.6875,2.6875zM61.8125,118.25c0,4.44512 -3.61738,8.0625 -8.0625,8.0625c-4.44512,0 -8.0625,-3.61738 -8.0625,-8.0625c0,-4.44512 3.61738,-8.0625 8.0625,-8.0625c4.44512,0 8.0625,3.61738 8.0625,8.0625zM56.4375,118.25c0,-1.4835 -1.204,-2.6875 -2.6875,-2.6875c-1.4835,0 -2.6875,1.204 -2.6875,2.6875c0,1.4835 1.204,2.6875 2.6875,2.6875c1.4835,0 2.6875,-1.204 2.6875,-2.6875z" fill="#8d6c9f"/>
                <path d="M139.33612,58.02313c-1.40287,7.24819 -6.61125,13.33269 -13.59337,15.87775c-3.81625,1.38675 -7.69969,1.70656 -11.55356,0.95406c-0.95675,-0.18544 -1.9135,0.07525 -2.53969,0.70144l-36.09581,36.09581c-0.62887,0.62619 -0.88956,1.57756 -0.70144,2.54237c0.63962,3.24919 0.50794,6.54944 -0.39238,9.80131c-2.34887,8.46831 -9.76906,14.75437 -18.46312,15.64125c-0.74444,0.07525 -1.49156,0.11288 -2.23062,0.11288c-5.70019,0 -11.15044,-2.23063 -15.20856,-6.29144c-4.59294,-4.58756 -6.84775,-10.94619 -6.192,-17.44188c0.8815,-8.69944 7.16488,-16.125 15.63319,-18.47388c3.25725,-0.90031 6.55481,-1.03469 9.81206,-0.39506c0.95675,0.18275 1.9135,-0.07525 2.53969,-0.70144l36.09581,-36.0985c0.62888,-0.62619 0.88956,-1.57756 0.70144,-2.54237c-0.63962,-3.25456 -0.50794,-6.55481 0.39506,-9.80937c2.34887,-8.46831 9.77175,-14.75169 18.47119,-15.63319c6.87194,-0.69069 13.47244,1.81406 18.11106,6.88806c4.63863,5.074 6.53869,11.91638 5.21106,18.77219zM130.15831,42.87906c-3.48031,-3.80819 -8.45488,-5.68944 -13.60413,-5.16538c-6.50913,0.65844 -12.06956,5.36962 -13.82988,11.72288c-0.67725,2.44025 -0.77937,4.91006 -0.301,7.33956c0.53213,2.72512 -0.28219,5.47981 -2.17688,7.3745l-36.09581,36.09312c-1.892,1.89469 -4.64669,2.71438 -7.37181,2.17688c-1.00512,-0.19619 -2.01562,-0.29563 -3.02881,-0.29563c-1.43781,0 -2.881,0.19888 -4.31881,0.59663c-6.35325,1.76031 -11.06444,7.31806 -11.72287,13.83256c-0.49181,4.88319 1.19862,9.65888 4.64131,13.09888c3.44269,3.44537 8.21031,5.13312 13.09887,4.63325c6.51181,-0.66381 12.06956,-5.37769 13.82988,-11.72825c0.67456,-2.43756 0.77669,-4.90738 0.29831,-7.33419c-0.53212,-2.72513 0.28219,-5.47981 2.17687,-7.3745l36.0985,-36.09581c1.89469,-1.89469 4.64938,-2.709 7.37181,-2.17688c2.87562,0.56169 5.79694,0.3225 8.67794,-0.72831c5.21912,-1.90275 9.11062,-6.44194 10.15875,-11.84919c0.99975,-5.16806 -0.42194,-10.31194 -3.90225,-14.12012zM139.75,83.3125v5.375c0,1.48619 -1.20131,2.6875 -2.6875,2.6875c-1.48619,0 -2.6875,-1.20131 -2.6875,-2.6875v-5.375c0,-1.48619 1.20131,-2.6875 2.6875,-2.6875c1.48619,0 2.6875,1.20131 2.6875,2.6875z" fill="#8d6c9f"/>
                <path d="M126.3125,83.3125v5.375c0,1.48619 -1.20131,2.6875 -2.6875,2.6875c-1.48619,0 -2.6875,-1.20131 -2.6875,-2.6875v-5.375c0,-1.48619 1.20131,-2.6875 2.6875,-2.6875c1.48619,0 2.6875,1.20131 2.6875,2.6875zM112.875,83.3125v5.375c0,1.48619 -1.20131,2.6875 -2.6875,2.6875c-1.48619,0 -2.6875,-1.20131 -2.6875,-2.6875v-5.375c0,-1.48619 1.20131,-2.6875 2.6875,-2.6875c1.48619,0 2.6875,1.20131 2.6875,2.6875zM59.125,88.6875v-5.375c0,-1.48619 1.20131,-2.6875 2.6875,-2.6875c1.48619,0 2.6875,1.20131 2.6875,2.6875v5.375c0,1.48619 -1.20131,2.6875 -2.6875,2.6875c-1.48619,0 -2.6875,-1.20131 -2.6875,-2.6875zM45.6875,88.6875v-5.375c0,-1.48619 1.20131,-2.6875 2.6875,-2.6875c1.48619,0 2.6875,1.20131 2.6875,2.6875v5.375c0,1.48619 -1.20131,2.6875 -2.6875,2.6875c-1.48619,0 -2.6875,-1.20131 -2.6875,-2.6875zM32.25,88.6875v-5.375c0,-1.48619 1.20131,-2.6875 2.6875,-2.6875c1.48619,0 2.6875,1.20131 2.6875,2.6875v5.375c0,1.48619 -1.20131,2.6875 -2.6875,2.6875c-1.48619,0 -2.6875,-1.20131 -2.6875,-2.6875z" fill="#8d6c9f"/>
            </g>
            <path d="M0,172v-172h172v172z" fill="none" stroke="none" stroke-linejoin="miter" stroke-width="1"/>
            <g stroke="none" stroke-linejoin="miter" stroke-width="1">
                <path d="M153.1875,24.1875v123.625c0,2.95625 -2.41875,5.375 -5.375,5.375h-123.625c-2.95625,0 -5.375,-2.41875 -5.375,-5.375v-123.625c0,-2.95625 2.41875,-5.375 5.375,-5.375h123.625c2.95625,0 5.375,2.41875 5.375,5.375z" fill="#72caaf"/>
                <path d="M116.28813,35.045c-7.60562,0.7525 -14.10937,6.31563 -16.15187,13.67938c-0.83313,2.98313 -0.88688,5.88563 -0.34938,8.57313c0.34938,1.80063 -0.13437,3.655 -1.45125,4.945l-36.09313,36.09313c-1.29,1.31688 -3.14437,1.80063 -4.945,1.45125c-2.6875,-0.5375 -5.59,-0.48375 -8.57313,0.34938c-7.36375,2.0425 -12.92687,8.54625 -13.67937,16.15187c-1.20937,11.9325 8.73438,21.87625 20.66688,20.66688c7.60563,-0.77938 14.10938,-6.31563 16.15188,-13.67937c0.83312,-2.98313 0.88687,-5.88563 0.34937,-8.57313c-0.34937,-1.80062 0.13438,-3.655 1.45125,-4.945l36.09313,-36.09312c1.29,-1.31687 3.14438,-1.80062 4.945,-1.45125c3.14438,0.61812 6.5575,0.45687 10.13188,-0.83313c6.04688,-2.20375 10.6425,-7.55187 11.85188,-13.8675c2.4725,-12.71188 -7.87438,-23.7575 -20.39813,-22.4675zM53.75,123.625c-2.95625,0 -5.375,-2.41875 -5.375,-5.375c0,-2.95625 2.41875,-5.375 5.375,-5.375c2.95625,0 5.375,2.41875 5.375,5.375c0,2.95625 -2.41875,5.375 -5.375,5.375zM118.25,59.125c-2.95625,0 -5.375,-2.41875 -5.375,-5.375c0,-2.95625 2.41875,-5.375 5.375,-5.375c2.95625,0 5.375,2.41875 5.375,5.375c0,2.95625 -2.41875,5.375 -5.375,5.375zM138.16437,126.7425c-1.31687,-1.29 -1.80062,-3.14438 -1.45125,-4.945c0.5375,-2.6875 0.48375,-5.59 -0.34938,-8.57313c-2.0425,-7.36375 -8.54625,-12.92687 -16.15187,-13.67938c-11.9325,-1.20938 -21.87625,8.73438 -20.66687,20.66688c0.77937,7.60562 6.31562,14.10937 13.67937,16.15187c2.98313,0.83313 5.88563,0.88688 8.57313,0.34938c1.80062,-0.34938 3.655,0.13438 4.945,1.45125l15.02313,15.02313h6.04688c2.95625,0 5.375,-2.41875 5.375,-5.375v-6.04687zM118.25,123.625c-2.95625,0 -5.375,-2.41875 -5.375,-5.375c0,-2.95625 2.41875,-5.375 5.375,-5.375c2.95625,0 5.375,2.41875 5.375,5.375c0,2.95625 -2.41875,5.375 -5.375,5.375zM72.455,51.78813c-0.7525,-7.60563 -6.31562,-14.10937 -13.67937,-16.15188c-2.98313,-0.83312 -5.88563,-0.88687 -8.57313,-0.34938c-1.80063,0.34938 -3.655,-0.13437 -4.945,-1.45125l-15.02312,-15.02312h-6.04687c-2.95625,0 -5.375,2.41875 -5.375,5.375v6.04688l15.02313,15.02313c1.31688,1.29 1.80062,3.14437 1.45125,4.945c-0.61812,3.14438 -0.45687,6.5575 0.83313,10.13188c2.20375,6.04687 7.55188,10.6425 13.8675,11.85188c12.71187,2.4725 23.7575,-7.87437 22.4675,-20.39812zM53.75,59.125c-2.95625,0 -5.375,-2.41875 -5.375,-5.375c0,-2.95625 2.41875,-5.375 5.375,-5.375c2.95625,0 5.375,2.41875 5.375,5.375c0,2.95625 -2.41875,5.375 -5.375,5.375z" fill="#f9dd8f"/>
                <path d="M147.8125,16.125h-123.625c-4.44513,0 -8.0625,3.61737 -8.0625,8.0625v123.625c0,4.44512 3.61737,8.0625 8.0625,8.0625h123.625c4.44512,0 8.0625,-3.61738 8.0625,-8.0625v-123.625c0,-4.44513 -3.61737,-8.0625 -8.0625,-8.0625zM150.5,147.8125c0,1.4835 -1.204,2.6875 -2.6875,2.6875h-4.91275l-14.24912,-14.24644c-1.89469,-1.89469 -4.65744,-2.709 -7.3745,-2.17687c-2.88369,0.56706 -5.79963,0.31713 -8.67794,-0.72831c-5.21913,-1.90275 -9.11331,-6.44194 -10.15875,-11.85187c-0.99975,-5.16537 0.42194,-10.31194 3.90225,-14.12013c3.48031,-3.8055 8.43069,-5.69481 13.60412,-5.16537c6.51181,0.65844 12.06956,5.36962 13.82987,11.72288c0.67725,2.44025 0.77938,4.91006 0.301,7.34225c-0.53213,2.72244 0.2795,5.47713 2.17687,7.37181l6.97138,6.97406c1.05081,1.05081 2.74931,1.05081 3.80012,0c1.05081,-1.05081 1.05081,-2.74931 0,-3.80013l-6.97137,-6.97406c-0.62619,-0.62619 -0.88956,-1.57756 -0.70144,-2.53969c0.63694,-3.25725 0.50525,-6.5575 -0.39506,-9.81206c-2.34888,-8.46831 -9.77175,-14.75169 -18.47119,-15.63319c-6.88537,-0.69875 -13.47513,1.81675 -18.11106,6.88806c-4.63594,5.07131 -6.53869,11.91637 -5.20838,18.76412c1.40019,7.25088 6.61125,13.33538 13.59338,15.88044c3.81625,1.39212 7.70237,1.70925 11.55088,0.95406c0.9675,-0.18544 1.91619,0.07256 2.54237,0.70144l10.44363,10.449h-111.10931c-1.4835,0 -2.6875,-1.204 -2.6875,-2.6875v-56.4375c1.48619,0 2.6875,-1.20131 2.6875,-2.6875v-5.375c0,-1.48619 -1.20131,-2.6875 -2.6875,-2.6875v-56.4375c0,-1.4835 1.204,-2.6875 2.6875,-2.6875h4.91275l14.24912,14.24644c1.89469,1.892 4.66013,2.70631 7.3745,2.17688c2.43219,-0.48106 4.90469,-0.37894 7.33956,0.301c6.35325,1.76031 11.06444,7.32075 11.72288,13.83256c0.49719,4.8805 -1.19325,9.6535 -4.63594,13.09619c-3.44269,3.44 -8.20494,5.14656 -13.09619,4.63594c-6.5145,-0.65844 -12.07225,-5.36963 -13.83256,-11.72288c-0.67725,-2.44025 -0.77937,-4.91006 -0.301,-7.34225c0.53213,-2.72244 -0.2795,-5.47713 -2.17688,-7.37181l-6.97137,-6.97406c-1.05081,-1.05081 -2.74931,-1.05081 -3.80013,0c-1.05081,1.05081 -1.05081,2.74931 0,3.80013l6.97138,6.97406c0.62619,0.62619 0.88956,1.57756 0.70144,2.53969c-0.63694,3.25725 -0.50525,6.5575 0.39506,9.81206c2.34887,8.46831 9.77444,14.75169 18.47388,15.63319c0.74444,0.07256 1.48619,0.11287 2.21988,0.11287c5.70556,0 11.15313,-2.23331 15.21931,-6.29681c4.58756,-4.59025 6.84238,-10.9435 6.18394,-17.4365c-0.8815,-8.69944 -7.16488,-16.125 -15.63319,-18.47387c-3.25725,-0.90031 -6.55481,-1.03469 -9.80937,-0.39506c-0.96481,0.18544 -1.91619,-0.07256 -2.54237,-0.70144l-10.449,-10.44631h111.10931c1.4835,0 2.6875,1.204 2.6875,2.6875v56.4375c-1.48619,0 -2.6875,1.20131 -2.6875,2.6875v5.375c0,1.48619 1.20131,2.6875 2.6875,2.6875z" fill="#8d6c9f"/>
                <path d="M118.25,45.6875c-4.44512,0 -8.0625,3.61738 -8.0625,8.0625c0,4.44512 3.61738,8.0625 8.0625,8.0625c4.44512,0 8.0625,-3.61738 8.0625,-8.0625c0,-4.44512 -3.61737,-8.0625 -8.0625,-8.0625zM118.25,56.4375c-1.4835,0 -2.6875,-1.204 -2.6875,-2.6875c0,-1.4835 1.204,-2.6875 2.6875,-2.6875c1.4835,0 2.6875,1.204 2.6875,2.6875c0,1.4835 -1.204,2.6875 -2.6875,2.6875zM118.25,110.1875c-4.44512,0 -8.0625,3.61738 -8.0625,8.0625c0,4.44512 3.61738,8.0625 8.0625,8.0625c4.44512,0 8.0625,-3.61738 8.0625,-8.0625c0,-4.44512 -3.61737,-8.0625 -8.0625,-8.0625zM118.25,120.9375c-1.4835,0 -2.6875,-1.204 -2.6875,-2.6875c0,-1.4835 1.204,-2.6875 2.6875,-2.6875c1.4835,0 2.6875,1.204 2.6875,2.6875c0,1.4835 -1.204,2.6875 -2.6875,2.6875zM53.75,61.8125c4.44512,0 8.0625,-3.61738 8.0625,-8.0625c0,-4.44512 -3.61738,-8.0625 -8.0625,-8.0625c-4.44512,0 -8.0625,3.61738 -8.0625,8.0625c0,4.44512 3.61738,8.0625 8.0625,8.0625zM53.75,51.0625c1.4835,0 2.6875,1.204 2.6875,2.6875c0,1.4835 -1.204,2.6875 -2.6875,2.6875c-1.4835,0 -2.6875,-1.204 -2.6875,-2.6875c0,-1.4835 1.204,-2.6875 2.6875,-2.6875zM53.75,110.1875c-4.44512,0 -8.0625,3.61738 -8.0625,8.0625c0,4.44512 3.61738,8.0625 8.0625,8.0625c4.44512,0 8.0625,-3.61738 8.0625,-8.0625c0,-4.44512 -3.61738,-8.0625 -8.0625,-8.0625zM53.75,120.9375c-1.4835,0 -2.6875,-1.204 -2.6875,-2.6875c0,-1.4835 1.204,-2.6875 2.6875,-2.6875c1.4835,0 2.6875,1.204 2.6875,2.6875c0,1.4835 -1.204,2.6875 -2.6875,2.6875z" fill="#8d6c9f"/>
                <path d="M134.12506,39.25094c-4.63862,-5.074 -11.23913,-7.57875 -18.11106,-6.88806c-8.69944,0.8815 -16.12231,7.16487 -18.47119,15.63319c-0.903,3.25456 -1.03469,6.55481 -0.39506,9.80937c0.18813,0.96481 -0.07256,1.91619 -0.70144,2.54237l-36.09581,36.0985c-0.62619,0.62619 -1.58294,0.88419 -2.53969,0.70144c-3.25725,-0.63962 -6.55481,-0.50525 -9.81206,0.39506c-8.46831,2.34888 -14.75169,9.77444 -15.63319,18.47388c-0.65575,6.49569 1.59906,12.85431 6.192,17.44188c4.05813,4.06081 9.50838,6.29144 15.20856,6.29144c0.73906,0 1.48619,-0.03763 2.23062,-0.11288c8.69406,-0.88688 16.11425,-7.17294 18.46312,-15.64125c0.90031,-3.25187 1.032,-6.55213 0.39238,-9.80131c-0.18812,-0.96481 0.07256,-1.91619 0.70144,-2.54237l36.09581,-36.09581c0.62619,-0.62619 1.58294,-0.88688 2.53969,-0.70144c3.85388,0.7525 7.73731,0.43269 11.55356,-0.95406c6.98213,-2.54506 12.1905,-8.62956 13.59337,-15.87775c1.32763,-6.85581 -0.57244,-13.69819 -5.21106,-18.77219zM134.06056,56.99919c-1.04812,5.40725 -4.93963,9.94644 -10.15875,11.84919c-2.881,1.05081 -5.80231,1.29 -8.67794,0.72831c-2.72244,-0.53212 -5.47712,0.28219 -7.37181,2.17688l-36.0985,36.09581c-1.89469,1.89469 -2.709,4.64937 -2.17687,7.3745c0.47837,2.42681 0.37625,4.89663 -0.29831,7.33419c-1.76031,6.35056 -7.31806,11.06444 -13.82988,11.72825c-4.88856,0.49987 -9.65619,-1.18788 -13.09887,-4.63325c-3.44269,-3.44 -5.13313,-8.21569 -4.64131,-13.09888c0.65844,-6.5145 5.36963,-12.07225 11.72287,-13.83256c1.43781,-0.39775 2.881,-0.59663 4.31881,-0.59663c1.01319,0 2.02369,0.09944 3.02881,0.29563c2.72512,0.5375 5.47981,-0.28219 7.37181,-2.17688l36.09581,-36.09312c1.89469,-1.89469 2.709,-4.64938 2.17688,-7.3745c-0.47837,-2.4295 -0.37625,-4.89931 0.301,-7.33956c1.76031,-6.35325 7.32075,-11.06444 13.82988,-11.72288c5.14925,-0.52406 10.12381,1.35719 13.60413,5.16538c3.48031,3.80819 4.902,8.95206 3.90225,14.12012zM137.0625,80.625c-1.48619,0 -2.6875,1.20131 -2.6875,2.6875v5.375c0,1.48619 1.20131,2.6875 2.6875,2.6875c1.48619,0 2.6875,-1.20131 2.6875,-2.6875v-5.375c0,-1.48619 -1.20131,-2.6875 -2.6875,-2.6875z" fill="#8d6c9f"/>
                <path d="M123.625,80.625c-1.48619,0 -2.6875,1.20131 -2.6875,2.6875v5.375c0,1.48619 1.20131,2.6875 2.6875,2.6875c1.48619,0 2.6875,-1.20131 2.6875,-2.6875v-5.375c0,-1.48619 -1.20131,-2.6875 -2.6875,-2.6875zM110.1875,80.625c-1.48619,0 -2.6875,1.20131 -2.6875,2.6875v5.375c0,1.48619 1.20131,2.6875 2.6875,2.6875c1.48619,0 2.6875,-1.20131 2.6875,-2.6875v-5.375c0,-1.48619 -1.20131,-2.6875 -2.6875,-2.6875zM61.8125,91.375c1.48619,0 2.6875,-1.20131 2.6875,-2.6875v-5.375c0,-1.48619 -1.20131,-2.6875 -2.6875,-2.6875c-1.48619,0 -2.6875,1.20131 -2.6875,2.6875v5.375c0,1.48619 1.20131,2.6875 2.6875,2.6875zM48.375,91.375c1.48619,0 2.6875,-1.20131 2.6875,-2.6875v-5.375c0,-1.48619 -1.20131,-2.6875 -2.6875,-2.6875c-1.48619,0 -2.6875,1.20131 -2.6875,2.6875v5.375c0,1.48619 1.20131,2.6875 2.6875,2.6875zM34.9375,91.375c1.48619,0 2.6875,-1.20131 2.6875,-2.6875v-5.375c0,-1.48619 -1.20131,-2.6875 -2.6875,-2.6875c-1.48619,0 -2.6875,1.20131 -2.6875,2.6875v5.375c0,1.48619 1.20131,2.6875 2.6875,2.6875z" fill="#8d6c9f"/>
            </g>
            <path d="" fill="none" stroke="none" stroke-linejoin="miter" stroke-width="1"/>
        </g>
    </g>
</svg>