<?xml version="1.0" encoding="UTF-8"?>
<svg width="104px" height="104px" viewBox="0 0 104 104" version="1.1" xmlns="http://www.w3.org/2000/svg" xmlns:xlink="http://www.w3.org/1999/xlink">
    <title>lowtechicon</title>
    <g id="lowtechicon" stroke="none" stroke-width="1" fill="none" fill-rule="evenodd">
        <path d="M20.5110816,-8.28672246e-16 L83.4889184,8.28672246e-16 C90.6210683,-4.81482439e-16 93.2073582,0.742604889 95.8147656,2.13706163 C98.422173,3.53151837 100.468482,5.57782696 101.862938,8.18523437 C103.257395,10.7926418 104,13.3789317 104,20.5110816 L104,83.4889184 C104,90.6210683 103.257395,93.2073582 101.862938,95.8147656 C100.468482,98.422173 98.422173,100.468482 95.8147656,101.862938 C93.2073582,103.257395 90.6210683,104 83.4889184,104 L20.5110816,104 C13.3789317,104 10.7926418,103.257395 8.18523437,101.862938 C5.57782696,100.468482 3.53151837,98.422173 2.13706163,95.8147656 C0.742604889,93.2073582 3.20988293e-16,90.6210683 -5.52448164e-16,83.4889184 L5.52448164e-16,20.5110816 C-3.20988293e-16,13.3789317 0.742604889,10.7926418 2.13706163,8.18523437 C3.53151837,5.57782696 5.57782696,3.53151837 8.18523437,2.13706163 C10.7926418,0.742604889 13.3789317,4.81482439e-16 20.5110816,-8.28672246e-16 Z" id="Rectangle" fill="#F69200"></path>
        <g id="noun_Typewriter_59587" transform="translate(15.000000, 7.000000)" fill="#1D1D1D" fill-rule="nonzero">
            <g id="Group">
                <path d="M81.225,67.5907523 C81.223,67.2687523 81.071,66.7497523 80.657,66.2017523 C79.35,64.5037523 70.427,52.9237523 69.009,51.2487523 C67.48,49.4407523 66.116,48.9257523 64.513,48.0567523 C62.908,47.1877523 55.388,43.2197523 54.138,42.3857523 C53.099,41.6947523 52.445,41.5757523 51.697,41.8717523 C50.041,40.8907523 48.631,40.0177523 47.92,39.5497523 L47.826,7.62675229 C47.824,6.95975229 47.822,5.90675229 47.82,5.28775229 C47.818,4.66875229 47.457,3.96375229 47.015,3.72175229 C46.573,3.47975229 40.783,0.243752294 40.783,0.243752294 C40.2,-0.0822477064 39.248,-0.0812477064 38.666,0.246752294 L28.427,6.00975229 L26.186,4.68875229 C25.882,4.50975229 25.379,4.50075229 25.07,4.66775229 L12.591,11.3947523 C12.409,11.4937523 12.332,11.6317523 12.362,11.7657523 L12.362,13.0047523 C12.361,13.1027523 12.341,13.2457523 12.385,13.3077523 C12.409,13.3407523 12.478,13.4087523 12.551,13.4517523 L17.58,16.4157523 C17.884,16.5947523 18.386,16.6037523 18.697,16.4367523 L19.35,16.0837523 C19.402,16.0557523 19.445,16.0247523 19.48,15.9917523 C19.595,16.1597523 19.534,16.3557523 19.298,16.4827523 L18.644,16.8357523 C18.333,17.0027523 17.831,16.9937523 17.527,16.8147523 L13.474,14.4267523 L1.058,21.4147523 C0.477,21.7417523 0,22.5557523 0,23.2227523 L0,62.4807523 C0,63.1487523 0.478,63.9597523 1.062,64.2837523 L6.474,67.2897523 C7.056,67.6147523 7.766,68.0077523 8.048,68.1657523 C8.124,68.2077523 8.211,68.2377523 8.304,68.2587523 C8.304,68.4647523 8.333,70.3147523 8.333,70.3147523 C8.304,70.7407523 8.566,71.1707523 9.121,71.4947523 L41.215,90.2377523 C42.27,90.8537523 44.002,90.8597523 45.061,90.2497523 L80.463,69.8637523 C80.859,69.6357523 80.973,69.4177523 81.098,69.1367523 C81.225,68.8577523 81.229,68.4767523 81.229,68.3617523 C81.227,68.3597523 81.227,67.8287523 81.225,67.5907523 Z M52.542,51.1287523 C52.257,57.3717523 43.034,62.4247523 31.652,62.4247523 L31.652,58.9307523 L37.243,55.4887523 C37.366,55.6777523 37.48,55.8397523 37.566,55.9397523 C37.948,56.3837523 37.551,56.7297523 37.944,57.0057523 C37.465,57.1247523 36.942,57.1907523 36.394,57.1907523 C36.109,57.1907523 35.83,57.1727523 35.559,57.1387523 L34.9,59.6187523 C35.323,59.6637523 35.757,59.6867523 36.201,59.6867523 C40.332,59.6867523 43.681,57.6437523 43.681,55.1237523 C43.681,55.1077523 40.494,54.9297523 40.494,54.9297523 C40.424,55.3577523 40.178,55.7527523 39.801,56.0907523 C39.52,55.6097523 39.769,55.4597523 39.517,54.8847523 C39.448,54.7257523 39.335,54.5097523 39.209,54.2787523 L39.99,53.7977523 C41.288,53.8697523 42.832,53.9477523 43.519,53.9447523 C43.861,53.9437523 44.212,53.8207523 44.435,53.6447523 C44.533,53.5667523 44.607,53.4767523 44.642,53.3837523 C44.82,52.9127523 44.98,52.3617523 45.101,51.9537523 C45.353,51.1097523 46.179,51.0287523 46.501,51.0287523 C46.585,51.0317523 52.481,51.1287523 52.542,51.1287523 Z M39.686,50.5847523 C39.49,50.7027523 39.291,50.8207523 39.093,50.9367523 C39.093,50.9367523 38.887,51.0437523 38.821,51.1477523 C38.62,51.4657523 38.069,52.3567523 37.722,52.8487523 C37.721,52.8497523 37.721,52.8497523 37.721,52.8507523 C37.721,52.8497523 37.721,52.8487523 37.722,52.8477523 C37.953,52.3857523 38.364,51.6177523 38.611,51.2017523 L39.686,50.5847523 Z M47.921,39.9717523 L47.921,39.9717523 C48.187,40.0797523 48.476,40.2417523 48.802,40.4587523 C49.298,40.7897523 50.208,41.3607523 51.335,42.0427523 L51.335,42.0427523 L51.335,42.0427523 C51.296,42.0637523 51.257,42.0847523 51.218,42.1067523 C51.154,42.1437523 50.954,42.2627523 50.636,42.4557523 C49.525,40.8777523 47.954,40.2117523 46.996,40.8287523 L10.341,63.3727523 C10.184,63.5037523 10.057,63.6687523 9.961,63.8617523 C9.792,63.8967523 9.633,63.9617523 9.488,64.0537523 L9.286,64.1837523 C9.338,63.1837523 9.568,62.1537523 10.54,61.5977523 C11.895,60.8227523 44.394,41.0487523 45.853,40.1957523 C45.865,40.1887523 45.874,40.1837523 45.882,40.1787523 C46.263,39.9607523 46.601,39.8287523 46.945,39.7977523 C47.136,39.7807523 47.332,39.7947523 47.537,39.8437523 L47.537,39.8437523 C47.659,39.8747523 47.786,39.9167523 47.921,39.9717523 Z M16.968,12.5307523 L16.648,12.3347523 L25.068,7.75975229 C25.378,7.59175229 25.878,7.60475229 26.177,7.78875229 L29.639,9.90975229 C29.941,10.0937523 30.44,10.1067523 30.75,9.93975229 L31.173,9.71075229 C31.223,9.68375229 31.264,9.65475229 31.298,9.62275229 C31.416,9.78775229 31.358,9.98175229 31.121,10.1097523 L30.698,10.3387523 C30.388,10.5067523 29.888,10.4927523 29.587,10.3087523 L26.125,8.18775229 C25.824,8.00375229 25.325,7.99075229 25.016,8.15875229 L16.968,12.5307523 Z M7.297,30.5337523 L7.297,64.5527523 C7.297,65.2677523 7.471,65.8387523 7.772,66.2397523 C7.772,66.2397523 7.876,66.3747523 8.004,66.4217523 C8.022,66.7027523 8.07,66.9987523 8.15,67.3017523 C7.438,67.0117523 6.985,66.2317523 6.985,65.0727523 L6.985,30.3857523 C6.985,28.2877523 8.467,25.7107523 10.282,24.6567523 L44.137,4.99475229 C45.951,3.94175229 47.44,4.79575229 47.446,6.89275229 L47.534,39.3017523 C46.468,38.6637523 45.809,38.7067523 44.919,39.2167523 C44.728,39.3247523 43.302,40.1877523 41.122,41.5087523 L41.032,8.40075229 C41.031,7.95675229 40.964,7.56975229 40.841,7.24375229 L10.598,24.8057523 C8.783,25.8587523 7.297,28.4357523 7.297,30.5337523 Z M9.363,68.7167523 C8.896,68.0097523 8.839,67.1947523 9.234,66.8937523 C9.629,66.5927523 10.328,66.9207523 10.794,67.6277523 C11.261,68.3347523 11.317,69.1507523 10.923,69.4517523 C10.527,69.7517523 9.828,69.4227523 9.363,68.7167523 Z M9.818,69.4937523 C10.086,69.7027523 10.365,69.8287523 10.615,69.8477523 C11.105,70.1057523 11.586,70.1367523 11.927,69.8767523 C12.568,69.3897523 12.475,68.0677523 11.72,66.9237523 C10.965,65.7797523 9.834,65.2477523 9.195,65.7347523 C8.862,65.9877523 8.728,66.4647523 8.781,67.0277523 C8.718,67.2587523 8.718,67.5407523 8.784,67.8407523 C8.282,66.6137523 8.323,65.4247523 8.962,64.9317523 C9.769,64.3077523 11.226,65.0317523 12.217,66.5487523 C13.207,68.0657523 13.356,69.7997523 12.549,70.4237523 C11.874,70.9437523 10.748,70.5267523 9.818,69.4937523 Z M14.612,71.5787523 C14.612,71.8127523 14.342,72.1747523 13.844,72.1757523 C13.62,72.1757523 13.263,72.0667523 13.255,72.0617523 C13.255,72.0617523 12.1,71.3837523 11.472,71.0147523 C11.926,71.1087523 12.346,71.0437523 12.675,70.7927523 L13.547,70.2147523 C13.7,70.0977523 13.824,69.9467523 13.922,69.7707523 C14.097,69.7297523 14.26,69.6567523 14.406,69.5447523 L14.611,69.4187523 C14.612,70.4337523 14.612,71.3837523 14.612,71.5787523 Z M14.612,68.5097523 C14.522,68.7717523 14.377,68.9877523 14.175,69.1407523 C14.159,69.1537523 14.143,69.1647523 14.126,69.1757523 C14.297,68.2517523 13.987,66.9827523 13.232,65.8377523 C12.468,64.6797523 11.459,63.9727523 10.58,63.8467523 C10.601,63.8267523 10.624,63.8087523 10.646,63.7917523 C11.472,63.1627523 12.932,63.8517523 13.907,65.3277523 C14.246,65.8417523 14.611,66.5607523 14.611,67.2797523 C14.611,67.9987523 14.612,68.0457523 14.612,68.5097523 Z M69.019,53.4227523 L70.046,54.6897523 C69.431,54.7837523 68.982,55.0957523 68.982,55.4687523 L68.982,56.1367523 C68.75,56.0467523 68.468,55.9927523 68.16,55.9927523 C67.357,55.9927523 66.724,56.3547523 66.724,56.8017523 L66.714,57.4197523 C66.485,57.3347523 66.21,57.2847523 65.911,57.2847523 C65.108,57.2847523 64.462,57.6457523 64.462,58.0937523 L64.46,58.7407523 C64.228,58.6497523 63.946,58.5967523 63.638,58.5967523 C62.833,58.5967523 62.202,58.9577523 62.202,59.4057523 L62.192,60.0697523 C61.954,59.9687523 61.655,59.9097523 61.331,59.9097523 C60.526,59.9097523 59.892,60.2717523 59.892,60.7187523 L59.884,61.3697523 C59.655,61.2767523 59.372,61.2227523 59.062,61.2227523 C58.257,61.2227523 57.644,61.5847523 57.644,62.0327523 L57.626,62.7157523 C57.392,62.6267523 57.108,62.5737523 56.804,62.5737523 C56.001,62.5737523 55.347,62.9357523 55.347,63.3837523 L55.349,64.0377523 C55.117,63.9467523 54.835,63.8937523 54.527,63.8937523 C53.724,63.8937523 53.099,64.2547523 53.099,64.7027523 L53.087,65.3497523 C52.853,65.2627523 52.569,65.2117523 52.269,65.2117523 C51.466,65.2117523 50.802,65.5737523 50.802,66.0207523 L50.808,66.6717523 C50.578,66.5827523 50.296,66.5307523 49.992,66.5307523 C49.189,66.5307523 48.554,66.8917523 48.554,67.3397523 L48.546,68.0027523 C48.31,67.9057523 48.019,67.8497523 47.7,67.8497523 C46.895,67.8497523 46.258,68.2117523 46.258,68.6597523 L46.251,69.3187523 C46.022,69.2247523 45.737,69.1697523 45.423,69.1697523 C44.619,69.1697523 44.008,69.5317523 44.008,69.9787523 L43.989,70.6317523 C43.755,70.5417523 43.471,70.4887523 43.165,70.4887523 C42.362,70.4887523 41.712,70.8507523 41.712,71.2977523 L41.712,71.9567523 C41.478,71.8627523 41.191,71.8077523 40.876,71.8077523 C40.073,71.8077523 39.44,72.1697523 39.44,72.6177523 L39.431,73.2607523 C39.2,73.1767523 38.925,73.1277523 38.629,73.1277523 C37.826,73.1277523 37.167,73.4897523 37.167,73.9367523 L37.17,74.5877523 C36.937,74.4987523 36.654,74.4467523 36.35,74.4467523 C35.546,74.4467523 34.895,74.8087523 34.895,75.2557523 L34.895,75.9757523 C34.895,76.4217523 35.546,76.7847523 36.35,76.7847523 C37.154,76.7847523 37.805,76.4227523 37.805,75.9757523 L37.805,75.3207523 C38.04,75.4107523 38.325,75.4627523 38.629,75.4627523 C39.434,75.4627523 40.093,75.1007523 40.093,74.6537523 L40.093,74.0147523 C40.319,74.0957523 40.586,74.1427523 40.875,74.1427523 C41.679,74.1427523 42.313,73.7817523 42.313,73.3337523 L42.313,72.6697523 C42.551,72.7667523 42.846,72.8237523 43.165,72.8237523 C43.969,72.8237523 44.618,72.4617523 44.618,72.0147523 L44.618,71.3677523 C44.846,71.4537523 45.122,71.5047523 45.423,71.5047523 C46.226,71.5047523 46.837,71.1427523 46.837,70.6957523 L46.837,70.0267523 C47.077,70.1267523 47.376,70.1847523 47.7,70.1847523 C48.503,70.1847523 49.141,69.8237523 49.141,69.3757523 L49.141,68.7117523 C49.379,68.8087523 49.672,68.8657523 49.991,68.8657523 C50.796,68.8657523 51.43,68.5037523 51.43,68.0567523 L51.43,67.4007523 C51.668,67.4937523 51.957,67.5477523 52.268,67.5477523 C53.073,67.5477523 53.735,67.1857523 53.735,66.7387523 L53.735,66.0967523 C53.962,66.1787523 54.233,66.2277523 54.526,66.2277523 C55.331,66.2277523 55.954,65.8667523 55.954,65.4187523 L55.954,64.7567523 C56.194,64.8527523 56.487,64.9077523 56.804,64.9077523 C57.609,64.9077523 58.261,64.5467523 58.261,64.0987523 L58.261,63.4207523 C58.488,63.5067523 58.763,63.5567523 59.062,63.5567523 C59.865,63.5567523 60.48,63.1957523 60.48,62.7477523 L60.48,62.0897523 C60.718,62.1877523 61.011,62.2437523 61.332,62.2437523 C62.135,62.2437523 62.768,61.8817523 62.768,61.4347523 L62.768,60.7687523 C63.01,60.8707523 63.311,60.9307523 63.639,60.9307523 C64.442,60.9307523 65.075,60.5687523 65.075,60.1217523 L65.075,59.4687523 C65.311,59.5627523 65.6,59.6177523 65.913,59.6177523 C66.718,59.6177523 67.362,59.2557523 67.362,58.8087523 L67.362,58.1927523 C67.591,58.2757523 67.866,58.3257523 68.161,58.3257523 C68.966,58.3257523 69.599,57.9637523 69.599,57.5177523 L69.599,56.8437523 C69.835,56.9367523 70.124,56.9907523 70.437,56.9907523 C70.935,56.9907523 71.373,56.8517523 71.634,56.6397523 L72.025,57.1207523 C71.384,57.2057523 70.912,57.5247523 70.912,57.9067523 L70.91,58.5767523 C70.678,58.4857523 70.396,58.4317523 70.088,58.4317523 C69.285,58.4317523 68.652,58.7937523 68.652,59.2407523 L68.644,59.8587523 C68.414,59.7737523 68.138,59.7227523 67.839,59.7227523 C67.036,59.7227523 66.392,60.0847523 66.392,60.5327523 L66.388,61.1807523 C66.158,61.0897523 65.872,61.0367523 65.566,61.0367523 C64.761,61.0367523 64.13,61.3977523 64.13,61.8447523 L64.12,62.5097523 C63.882,62.4087523 63.583,62.3497523 63.257,62.3497523 C62.454,62.3497523 61.821,62.7107523 61.821,63.1577523 L61.813,63.8087523 C61.583,63.7167523 61.299,63.6627523 60.989,63.6627523 C60.184,63.6627523 59.571,64.0237523 59.571,64.4707523 L59.553,65.1547523 C59.319,65.0667523 59.035,65.0127523 58.731,65.0127523 C57.928,65.0127523 57.276,65.3747523 57.276,65.8227523 L57.276,66.4777523 C57.046,66.3867523 56.762,66.3327523 56.454,66.3327523 C55.649,66.3327523 55.026,66.6937523 55.026,67.1407523 L55.014,67.7897523 C54.78,67.7017523 54.498,67.6507523 54.196,67.6507523 C53.393,67.6507523 52.731,68.0127523 52.731,68.4597523 L52.735,69.1107523 C52.505,69.0227523 52.223,68.9687523 51.919,68.9687523 C51.116,68.9687523 50.481,69.3307523 50.481,69.7787523 L50.473,70.4417523 C50.237,70.3457523 49.944,70.2897523 49.627,70.2897523 C48.822,70.2897523 48.186,70.6507523 48.186,71.0977523 L48.178,71.7587523 C47.949,71.6637523 47.664,71.6097523 47.35,71.6097523 C46.545,71.6097523 45.937,71.9707523 45.937,72.4177523 L45.917,73.0717523 C45.683,72.9807523 45.398,72.9267523 45.092,72.9267523 C44.288,72.9267523 43.641,73.2887523 43.641,73.7367523 L43.639,74.3917523 C43.406,74.3007523 43.121,74.2457523 42.812,74.2457523 C42.008,74.2457523 41.369,74.6077523 41.369,75.0557523 L41.363,75.7007523 C41.132,75.6157523 40.854,75.5667523 40.557,75.5667523 C39.754,75.5667523 39.096,75.9277523 39.096,76.3747523 L39.098,77.0267523 C38.866,76.9377523 38.582,76.8847523 38.277,76.8847523 C37.474,76.8847523 36.823,77.2467523 36.823,77.6937523 L36.823,78.4137523 C36.823,78.8597523 37.474,79.2227523 38.277,79.2227523 C39.081,79.2227523 39.731,78.8607523 39.731,78.4137523 L39.731,77.7607523 C39.966,77.8507523 40.252,77.9037523 40.557,77.9037523 C41.361,77.9037523 42.02,77.5417523 42.02,77.0947523 L42.02,76.4527523 C42.247,76.5357523 42.519,76.5847523 42.812,76.5847523 C43.616,76.5847523 44.255,76.2227523 44.255,75.7757523 L44.255,75.1167523 C44.492,75.2107523 44.78,75.2647523 45.092,75.2647523 C45.895,75.2647523 46.543,74.9027523 46.543,74.4557523 L46.543,73.8077523 C46.772,73.8947523 47.048,73.9457523 47.35,73.9457523 C48.153,73.9457523 48.762,73.5837523 48.762,73.1377523 L48.762,72.4677523 C49.002,72.5677523 49.301,72.6267523 49.627,72.6267523 C50.43,72.6267523 51.068,72.2647523 51.068,71.8177523 L51.068,71.1537523 C51.306,71.2497523 51.599,71.3067523 51.918,71.3067523 C52.723,71.3067523 53.356,70.9447523 53.356,70.4977523 L53.356,69.8387523 C53.594,69.9327523 53.883,69.9867523 54.196,69.9867523 C55.001,69.9867523 55.663,69.6247523 55.663,69.1777523 L55.663,68.5347523 C55.888,68.6187523 56.161,68.6667523 56.454,68.6667523 C57.257,68.6667523 57.88,68.3047523 57.88,67.8587523 L57.88,67.1947523 C58.12,67.2907523 58.415,67.3467523 58.732,67.3467523 C59.537,67.3467523 60.187,66.9867523 60.187,66.5387523 L60.187,65.8597523 C60.414,65.9447523 60.691,65.9957523 60.99,65.9957523 C61.793,65.9957523 62.406,65.6347523 62.406,65.1877523 L62.406,64.5277523 C62.644,64.6257523 62.939,64.6827523 63.258,64.6827523 C64.063,64.6827523 64.696,64.3217523 64.696,63.8737523 L64.696,63.2067523 C64.936,63.3097523 65.237,63.3697523 65.567,63.3697523 C66.37,63.3697523 67.001,63.0087523 67.001,62.5607523 L67.001,61.9077523 C67.237,62.0027523 67.528,62.0567523 67.841,62.0567523 C68.646,62.0567523 69.288,61.6957523 69.288,61.2477523 L69.288,60.6407523 C69.518,60.7257523 69.792,60.7747523 70.089,60.7747523 C70.894,60.7747523 71.527,60.4137523 71.527,59.9667523 L71.527,59.2927523 C71.761,59.3857523 72.05,59.4397523 72.365,59.4397523 C72.885,59.4397523 73.34,59.2887523 73.595,59.0597523 L73.853,59.3787523 C73.304,59.4947523 72.915,59.7887523 72.915,60.1347523 L72.915,60.8067523 C72.683,60.7137523 72.397,60.6607523 72.087,60.6607523 C71.282,60.6607523 70.653,61.0227523 70.653,61.4697523 L70.643,62.0847523 C70.414,62.0007523 70.141,61.9527523 69.846,61.9527523 C69.043,61.9527523 68.393,62.3137523 68.393,62.7607523 L68.393,63.4117523 C68.161,63.3197523 67.875,63.2657523 67.563,63.2657523 C66.76,63.2657523 66.133,63.6267523 66.133,64.0747523 L66.121,64.7357523 C65.883,64.6367523 65.586,64.5787523 65.264,64.5787523 C64.461,64.5787523 63.823,64.9397523 63.823,65.3877523 L63.813,66.0407523 C63.583,65.9457523 63.299,65.8907523 62.983,65.8907523 C62.18,65.8907523 61.571,66.2517523 61.571,66.6997523 L61.551,67.3857523 C61.317,67.2947523 61.031,67.2417523 60.727,67.2417523 C59.922,67.2417523 59.274,67.6037523 59.274,68.0507523 L59.274,68.7037523 C59.044,68.6137523 58.762,68.5607523 58.458,68.5607523 C57.653,68.5607523 57.026,68.9217523 57.026,69.3697523 L57.014,70.0207523 C56.78,69.9317523 56.496,69.8797523 56.192,69.8797523 C55.387,69.8797523 54.729,70.2407523 54.729,70.6887523 L54.733,71.3367523 C54.503,71.2487523 54.223,71.1987523 53.922,71.1987523 C53.119,71.1987523 52.481,71.5597523 52.481,72.0067523 L52.475,72.6737523 C52.237,72.5757523 51.944,72.5177523 51.621,72.5177523 C50.818,72.5177523 50.183,72.8787523 50.183,73.3267523 L50.175,73.9837523 C49.946,73.8917523 49.663,73.8377523 49.351,73.8377523 C48.548,73.8377523 47.935,74.1987523 47.935,74.6467523 L47.917,75.2977523 C47.683,75.2087523 47.399,75.1567523 47.095,75.1567523 C46.291,75.1567523 45.638,75.5177523 45.638,75.9647523 L45.639,76.6227523 C45.406,76.5297523 45.118,76.4757523 44.806,76.4757523 C44.001,76.4757523 43.367,76.8377523 43.367,77.2847523 L43.359,77.9267523 C43.129,77.8437523 42.854,77.7957523 42.56,77.7957523 C41.757,77.7957523 41.093,78.1567523 41.093,78.6047523 L41.099,79.2577523 C40.865,79.1667523 40.579,79.1117523 40.271,79.1117523 C39.468,79.1117523 38.82,79.4717523 38.82,79.9187523 L38.819,80.6357523 C38.819,81.0817523 39.468,81.4367523 40.271,81.4367523 L41.722,80.6147523 L41.722,79.9857523 C41.959,80.0787523 42.249,80.1317523 42.56,80.1317523 C43.365,80.1317523 44.027,79.7707523 44.027,79.3237523 L44.027,78.6867523 C44.252,78.7657523 44.519,78.8127523 44.806,78.8127523 C45.61,78.8127523 46.246,78.4517523 46.246,78.0037523 L46.246,77.3407523 C46.484,77.4367523 46.778,77.4917523 47.095,77.4917523 C47.898,77.4917523 48.552,77.1307523 48.552,76.6827523 L48.552,76.0367523 C48.779,76.1237523 49.054,76.1727523 49.351,76.1727523 C50.156,76.1727523 50.771,75.8117523 50.771,75.3647523 L50.771,74.7007523 C51.009,74.7977523 51.302,74.8537523 51.621,74.8537523 C52.426,74.8537523 53.059,74.4917523 53.059,74.0447523 L53.059,73.3757523 C53.299,73.4757523 53.598,73.5337523 53.922,73.5337523 C54.725,73.5337523 55.365,73.1727523 55.365,72.7247523 L55.365,72.0717523 C55.599,72.1617523 55.885,72.2147523 56.191,72.2147523 C56.994,72.2147523 57.652,71.8537523 57.652,71.4057523 L57.652,70.7607523 C57.882,70.8477523 58.158,70.8967523 58.457,70.8967523 C59.26,70.8967523 59.889,70.5367523 59.889,70.0887523 L59.889,69.4307523 C60.125,69.5237523 60.414,69.5777523 60.727,69.5777523 C61.53,69.5777523 62.178,69.2167523 62.178,68.7687523 L62.178,68.0887523 C62.405,68.1757523 62.682,68.2257523 62.983,68.2257523 C63.788,68.2257523 64.397,67.8647523 64.397,67.4177523 L64.397,66.7537523 C64.637,66.8547523 64.936,66.9127523 65.26,66.9127523 C66.065,66.9127523 66.701,66.5517523 66.701,66.1047523 L66.701,65.4427523 C66.939,65.5417523 67.236,65.5997523 67.558,65.5997523 C68.363,65.5997523 68.99,65.2387523 68.99,64.7917523 L68.99,64.1337523 C69.228,64.2297523 69.523,64.2867523 69.842,64.2867523 C70.645,64.2867523 71.295,63.9257523 71.295,63.4787523 L71.295,62.8657523 C71.522,62.9477523 71.791,62.9957523 72.082,62.9957523 C72.885,62.9957523 73.514,62.6337523 73.514,62.1867523 L73.514,61.5087523 C73.754,61.6047523 74.047,61.6607523 74.366,61.6607523 C74.807,61.6607523 75.204,61.5507523 75.471,61.3777523 L75.752,61.7247523 C75.137,61.8197523 74.688,62.1317523 74.688,62.5037523 L74.686,63.1737523 C74.454,63.0827523 74.172,63.0287523 73.864,63.0287523 C73.061,63.0287523 72.428,63.3907523 72.428,63.8377523 L72.418,64.4517523 C72.189,64.3687523 71.918,64.3207523 71.623,64.3207523 C70.82,64.3207523 70.168,64.6817523 70.168,65.1297523 L70.168,65.7787523 C69.936,65.6867523 69.65,65.6327523 69.342,65.6327523 C68.537,65.6327523 67.906,65.9937523 67.906,66.4417523 L67.896,67.1057523 C67.658,67.0047523 67.359,66.9457523 67.033,66.9457523 C66.23,66.9457523 65.597,67.3067523 65.597,67.7547523 L65.589,68.4057523 C65.359,68.3127523 65.075,68.2587523 64.763,68.2587523 C63.96,68.2587523 63.347,68.6197523 63.347,69.0677523 L63.329,69.7517523 C63.095,69.6627523 62.811,69.6107523 62.507,69.6107523 C61.702,69.6107523 61.052,69.9717523 61.052,70.4187523 L61.052,71.0747523 C60.822,70.9827523 60.538,70.9287523 60.23,70.9287523 C59.425,70.9287523 58.802,71.2907523 58.802,71.7377523 L58.79,72.3857523 C58.556,72.2997523 58.272,72.2477523 57.972,72.2477523 C57.167,72.2477523 56.507,72.6087523 56.507,73.0567523 L56.511,73.7077523 C56.281,73.6187523 56.001,73.5667523 55.695,73.5667523 C54.892,73.5667523 54.257,73.9277523 54.257,74.3757523 L54.249,75.0387523 C54.013,74.9417523 53.72,74.8867523 53.403,74.8867523 C52.598,74.8867523 51.962,75.2477523 51.962,75.6947523 L51.956,76.3557523 C51.726,76.2607523 51.44,76.2057523 51.124,76.2057523 C50.321,76.2057523 49.712,76.5667523 49.712,77.0137523 L49.692,77.6687523 C49.458,77.5777523 49.174,77.5247523 48.868,77.5247523 C48.063,77.5247523 47.417,77.8857523 47.417,78.3337523 L47.415,78.9887523 C47.182,78.8967523 46.896,78.8437523 46.587,78.8437523 C45.784,78.8437523 45.144,79.2047523 45.144,79.6517523 L45.14,80.2977523 C44.908,80.2127523 44.63,80.1627523 44.333,80.1627523 C43.529,80.1627523 42.872,80.5247523 42.872,80.9717523 L42.874,81.6227523 C42.641,81.5337523 42.358,81.4817523 42.053,81.4817523 C41.249,81.4817523 40.599,81.8427523 40.599,82.2907523 L40.599,83.0107523 C40.599,83.4567523 41.249,83.8187523 42.053,83.8187523 C42.857,83.8187523 43.507,83.4577523 43.507,83.0107523 L43.507,82.3577523 C43.741,82.4477523 44.027,82.5007523 44.333,82.5007523 C45.138,82.5007523 45.795,82.1397523 45.795,81.6917523 L45.795,81.0497523 C46.023,81.1327523 46.294,81.1807523 46.587,81.1807523 C47.392,81.1807523 48.03,80.8197523 48.03,80.3717523 L48.03,79.7147523 C48.268,79.8067523 48.555,79.8607523 48.868,79.8607523 C49.671,79.8607523 50.319,79.4997523 50.319,79.0527523 L50.319,78.4037523 C50.548,78.4907523 50.823,78.5427523 51.124,78.5427523 C51.929,78.5427523 52.538,78.1807523 52.538,77.7337523 L52.538,77.0637523 C52.778,77.1637523 53.077,77.2227523 53.403,77.2227523 C54.206,77.2227523 54.844,76.8617523 54.844,76.4137523 L54.844,75.7487523 C55.08,75.8457523 55.373,75.9027523 55.694,75.9027523 C56.497,75.9027523 57.132,75.5407523 57.132,75.0937523 L57.132,74.4357523 C57.37,74.5297523 57.659,74.5827523 57.972,74.5827523 C58.777,74.5827523 59.439,74.2207523 59.439,73.7747523 L59.439,73.1317523 C59.664,73.2147523 59.935,73.2637523 60.23,73.2637523 C61.033,73.2637523 61.656,72.9027523 61.656,72.4547523 L61.656,71.7917523 C61.896,71.8877523 62.189,71.9437523 62.508,71.9437523 C63.311,71.9437523 63.963,71.5817523 63.963,71.1347523 L63.963,70.4567523 C64.19,70.5427523 64.465,70.5927523 64.764,70.5927523 C65.569,70.5927523 66.182,70.2317523 66.182,69.7837523 L66.182,69.1257523 C66.42,69.2227523 66.713,69.2797523 67.034,69.2797523 C67.839,69.2797523 68.472,68.9187523 68.472,68.4707523 L68.472,67.8107523 C68.712,67.9137523 69.013,67.9737523 69.343,67.9737523 C70.146,67.9737523 70.777,67.6117523 70.777,67.1647523 L70.777,66.5087523 C71.015,66.6047523 71.308,66.6597523 71.625,66.6597523 C72.43,66.6597523 73.082,66.2987523 73.082,65.8517523 L73.082,65.2407523 C73.307,65.3207523 73.576,65.3687523 73.865,65.3687523 C74.668,65.3687523 75.301,65.0067523 75.301,64.5597523 L75.301,63.8857523 C75.537,63.9797523 75.828,64.0337523 76.141,64.0337523 C76.639,64.0337523 77.079,63.8937523 77.338,63.6807523 L77.785,64.2317523 C77.117,64.3037523 76.617,64.6307523 76.617,65.0247523 L76.613,65.6947523 C76.381,65.6037523 76.099,65.5497523 75.791,65.5497523 C74.986,65.5497523 74.355,65.9107523 74.355,66.3587523 L74.347,67.0127523 C74.12,66.9307523 73.853,66.8837523 73.562,66.8837523 C73.16,66.8837523 72.796,66.9747523 72.537,67.1207523 L54.307,77.6467523 C54.049,77.7927523 53.891,77.9937523 53.891,78.2167523 L53.883,78.8737523 C53.653,78.7807523 53.371,78.7277523 53.061,78.7277523 C52.256,78.7277523 51.639,79.0897523 51.639,79.5367523 L51.623,80.1917523 C51.389,80.1007523 51.103,80.0457523 50.795,80.0457523 C49.99,80.0457523 49.344,80.4077523 49.344,80.8557523 L49.342,81.5107523 C49.11,81.4197523 48.824,81.3647523 48.514,81.3647523 C47.711,81.3647523 47.073,81.7267523 47.073,82.1737523 L47.066,82.8947523 C47.066,83.3397523 47.712,83.7027523 48.514,83.7027523 C49.319,83.7027523 49.955,83.3407523 49.955,82.8947523 L49.955,82.2357523 C50.193,82.3287523 50.482,82.3827523 50.795,82.3827523 C51.598,82.3827523 52.244,82.0217523 52.244,81.5747523 L52.244,80.9227523 C52.474,81.0117523 52.756,81.0647523 53.06,81.0647523 C53.863,81.0647523 54.48,80.7027523 54.48,80.2557523 L54.48,79.5917523 C54.718,79.6887523 55.011,79.7447523 55.33,79.7447523 C55.703,79.7447523 56.041,79.6667523 56.295,79.5377523 L74.527,69.0157523 C74.82,68.8677523 75.004,68.6527523 75.004,68.4137523 L75.004,67.7597523 C75.231,67.8407523 75.498,67.8887523 75.789,67.8887523 C76.592,67.8887523 77.223,67.5267523 77.223,67.0797523 L77.223,66.4057523 C77.461,66.4987523 77.75,66.5537523 78.063,66.5537523 C78.577,66.5537523 79.024,66.4067523 79.28,66.1847523 C79.649,67.0097523 79.354,67.9527523 78.507,68.4407523 L45.046,87.7057523 C44.045,88.2827523 42.634,88.0157523 41.913,87.1137523 L31.917,74.7837523 L69.019,53.4227523 Z M32.7112374,70.2575119 L32.387957,70.4473324 C32.2263281,70.5425023 32.0655,70.6376273 31.909,70.7307523 C30.657,71.4767523 29.147,72.3557523 30.402,74.2227523 C30.9128333,74.9827523 32.0557847,76.4583773 33.2154028,77.9213287 L33.5631727,78.3591056 C34.951329,80.102866 36.2748602,81.7235014 36.4702665,81.9625118 L36.495,81.9927523 C36.495,81.9927523 31.681,76.2907523 30.216,74.5027523 C28.639,72.5807523 30.393,71.3317523 31.337,70.8677523 L31.5210125,70.7769535 L31.5210125,70.7769535 L31.8910494,70.5917612 C33.1862402,69.9379964 34.4496406,69.2450896 34.659569,69.1295274 L34.69,69.1127523 C34.69,69.1127523 33.7317205,69.6598929 32.7112374,70.2575119 Z" id="Shape"></path>
                <path d="M45.432,85.5327523 L45.432,84.8127523 C45.432,84.3657523 44.784,84.0027523 43.98,84.0027523 C43.176,84.0027523 42.528,84.3647523 42.528,84.8127523 L42.526,85.5327523 C42.526,85.9787523 43.176,86.3407523 43.98,86.3407523 C44.784,86.3407523 45.432,85.9787523 45.432,85.5327523 Z" id="Path"></path>
            </g>
        </g>
    </g>
</svg>