<?xml version="1.0" encoding="UTF-8"?>
<svg width="224px" height="224px" viewBox="0 0 224 224" version="1.1" xmlns="http://www.w3.org/2000/svg" xmlns:xlink="http://www.w3.org/1999/xlink">
    <title>Moon</title>
    <g id="Moon" stroke="none" stroke-width="1" fill="none" fill-rule="evenodd">
        <g>
            <ellipse fill="#F6D985" cx="111.713555" cy="112" rx="111.713555" ry="112"></ellipse>
            <g id="Craters" transform="translate(24.061381, 14.933333)" fill="#E7B24D" fill-opacity="0.599999964">
                <path d="M26.9258312,89.9811111 C26.9258312,98.4415385 20.9421142,105.298547 13.5595908,105.298547 C6.17706735,105.298547 0.190366581,98.4415385 0.190366581,89.9811111 C0.190366581,81.5230769 6.17706735,74.6666667 13.5595908,74.6666667 C20.9421142,74.6666667 26.9258312,81.5230769 26.9258312,89.9811111 Z" id="Path"></path>
                <path d="M32.0549872,150.835043 C27.5792839,155.322222 19.1148338,154.108889 13.1496164,148.128376 C7.18439898,142.14547 5.97476556,133.661709 10.4504689,129.17453 C14.9237852,124.689744 23.3882353,125.900684 29.3534527,131.88359 C35.3210571,137.864103 36.5283035,146.349658 32.0549872,150.835043 Z" id="Path"></path>
                <path d="M158.990708,142.129915 C163.284399,137.824615 169.375533,136.950513 172.595055,140.180684 C175.816368,143.410256 174.946888,149.517009 170.653197,153.821709 C166.359506,158.127009 160.265985,158.998718 157.046462,155.77094 C153.825149,152.541368 154.697016,146.434615 158.990708,142.129915 Z" id="Path"></path>
                <path d="M62.4462063,80.7931624 C63.4368286,80.7931624 64.429838,80.3701709 65.157289,79.6833333 C65.84237,78.9564103 66.2642796,77.9584615 66.2642796,76.9652991 C66.2642796,75.9673504 65.84237,74.9735897 65.157289,74.2448718 C63.7047741,72.8287179 61.1846547,72.8287179 59.7351236,74.2448718 C59.0446718,74.9735897 58.6251492,75.9296581 58.6251492,76.9652991 C58.6251492,77.9584615 59.0446718,78.9564103 59.7351236,79.6833333 C60.4578005,80.3701709 61.4531969,80.7931624 62.4462063,80.7931624 Z" id="Path"></path>
                <path d="M38.1538789,120.146923 C37.4634271,120.873846 37.0462916,121.869402 37.0462916,122.864957 C37.0462916,123.860513 37.4634271,124.856068 38.1538789,125.582991 C38.8789429,126.272821 39.8743393,126.695812 40.8673487,126.695812 C41.857971,126.695812 42.8509804,126.272821 43.5784314,125.582991 C44.2635124,124.856068 44.685422,123.860513 44.685422,122.864957 C44.685422,121.869402 44.2635124,120.873846 43.5784314,120.146923 C42.1629156,118.728376 39.568798,118.728376 38.1538789,120.146923 Z" id="Path"></path>
                <path d="M136.881927,112.487756 C136.192072,113.214679 135.774936,114.210235 135.774936,115.205791 C135.774936,116.201346 136.192072,117.1975 136.881927,117.926218 C137.604604,118.613654 138.6,119.036645 139.593009,119.036645 C140.586019,119.036645 141.576641,118.613654 142.304092,117.926218 C142.99156,117.1975 143.411083,116.201346 143.411083,115.205791 C143.411083,114.210235 142.99156,113.214679 142.304092,112.487756 C140.853964,111.071603 138.332055,111.071603 136.881927,112.487756 Z" id="Path"></path>
                <path d="M170.720631,61.6478632 C171.71364,61.6478632 172.704263,61.2248718 173.431714,60.5380342 C174.119778,59.8111111 174.541688,58.8131624 174.541688,57.82 C174.541688,56.8220513 174.119778,55.8282906 173.431714,55.0995726 C171.981586,53.6834188 169.382694,53.7205128 168.047144,55.0995726 C167.319693,55.8282906 166.902558,56.784359 166.902558,57.82 C166.902558,58.8131624 167.319693,59.8111111 168.009548,60.5380342 C168.732225,61.2248718 169.688235,61.6478632 170.720631,61.6478632 Z" id="Path"></path>
                <path d="M86.6961637,8.03982906 C87.6891731,8.03982906 88.6827792,7.61923077 89.4096334,6.93 C90.0953112,6.20307692 90.5172208,5.20752137 90.5172208,4.21196581 C90.5172208,3.21641026 90.0953112,2.2208547 89.4096334,1.49393162 C87.9577153,0.0753846154 85.4005968,0.0753846154 83.985081,1.49393162 C83.2952259,2.18076923 82.8780904,3.17871795 82.8780904,4.21196581 C82.8780904,5.24521368 83.2952259,6.20307692 83.985081,6.93 C84.7101449,7.61923077 85.7055413,8.03982906 86.6961637,8.03982906 Z" id="Path"></path>
                <path d="M65.2419676,153.183908 C64.2157536,154.246893 63.5907928,155.702701 63.5907928,157.158509 C63.5907928,158.614317 64.2157536,160.070125 65.2419676,161.13311 C66.3170066,162.141852 67.7977375,162.760395 69.2749175,162.760395 C70.7485466,162.760395 72.2257266,162.141852 73.3078675,161.13311 C74.3305305,160.070125 74.9546036,158.614317 74.9546036,157.158509 C74.9546036,155.702701 74.3269796,154.246893 73.3078675,153.183908 C71.1506876,151.113056 67.3991475,151.113056 65.2419676,153.183908 Z" id="Path"></path>
                <path d="M138.83214,141.701165 C138.83214,153.332532 129.426002,162.760395 117.823785,162.760395 C106.224552,162.760395 96.8184143,153.332532 96.8184143,141.701165 C96.8184143,130.069797 106.224552,120.641934 117.823785,120.641934 C129.426002,120.641934 138.83214,130.069797 138.83214,141.701165 Z" id="Path"></path>
                <path d="M139.785763,75.8165812 C139.785763,82.1590598 134.654817,87.3031624 128.328559,87.3031624 C121.999318,87.3031624 116.868372,82.1590598 116.868372,75.8165812 C116.868372,69.4711111 121.999318,64.3270085 128.328559,64.3270085 C134.654817,64.3270085 139.785763,69.4711111 139.785763,75.8165812 Z" id="Path"></path>
                <path d="M109.493308,42.5395352 C109.493308,50.7973258 102.81291,57.4948528 94.5762391,57.4948528 C86.3356833,57.4948528 79.6552856,50.7973258 79.6552856,42.5395352 C79.6552856,34.2778498 86.3356833,27.5803229 94.5762391,27.5803229 C102.81291,27.5803229 109.493308,34.2778498 109.493308,42.5395352 Z" id="Path"></path>
                <path d="M90.5172208,107.431007 C90.5172208,115.688798 83.8368231,122.386325 75.6001521,122.386325 C67.3595964,122.386325 60.6791986,115.688798 60.6791986,107.431007 C60.6791986,99.1693218 67.3595964,92.4717949 75.6001521,92.4717949 C83.8368231,92.4717949 90.5172208,99.1693218 90.5172208,107.431007 Z" id="Path"></path>
                <path d="M148.362936,25.2916499 C148.362936,29.8394016 144.010932,33.5278808 138.645081,33.5278808 C133.276698,33.5278808 128.924694,29.8394016 128.924694,25.2916499 C128.924694,20.7417533 133.276698,17.053274 138.645081,17.053274 C144.010932,17.053274 148.362936,20.7417533 148.362936,25.2916499 Z" id="Path"></path>
                <path d="M91.3473146,174.310769 C100.732566,171.791368 109.893436,175.565983 111.809633,182.74547 C113.728218,189.922564 107.67468,197.784103 98.2918159,200.303504 C88.9065644,202.822906 79.7456948,199.046496 77.82711,191.869402 C75.9109122,184.692308 81.9626598,176.830171 91.3473146,174.310769 Z" id="Path"></path>
                <path d="M166.570162,75.5437607 C172.444672,76.5135897 176.158312,83.6673504 174.866922,91.5199145 C173.575533,99.3700855 167.76607,104.948547 161.893947,103.976325 C156.020034,103.006496 152.304007,95.8551282 153.595396,88.0025641 C154.886786,80.15 160.696249,74.5715385 166.570162,75.5437607 Z" id="Path"></path>
                <path d="M51.7159837,40.9333751 C47.2265548,45.4349135 40.4031959,45.8926058 36.4729317,41.952264 C32.5450544,38.0143152 32.9997859,31.1740588 37.4892147,26.6725204 C41.9792403,22.1715802 48.8043895,21.7156828 52.7322667,25.6536315 C56.6601439,29.5915802 56.2060092,36.4348281 51.7159837,40.9333751 Z" id="Path"></path>
            </g>
            <path d="M165.80445,13.7850271 C200.29619,32.8487138 223.662393,69.6559164 223.662393,111.934582 C223.662393,173.790474 173.646531,223.934582 111.948838,223.934582 C60.2491316,223.934582 16.7519814,188.725215 4.01234161,140.919269 C22.7251929,166.526065 52.939665,183.155095 87.0281217,183.155095 C143.821639,183.155095 189.861881,136.9968 189.861881,80.0576587 C189.861881,55.0044364 180.94849,32.0383862 166.127594,14.1731004 Z" id="Darkside" fill-opacity="0.0700000003" fill="#A93232"></path>
        </g>
    </g>
</svg>