<svg xmlns="http://www.w3.org/2000/svg" x="0px" y="0px"
width="16" height="16"
viewBox="0 0 40 40"
style=" fill:#000000;"><path fill="#e1ebf2" d="M20,38.5C9.799,38.5,1.5,30.201,1.5,20c0-4.314,1.521-8.494,4.291-11.819 C6.161,8.389,6.577,8.5,7,8.5c1.378,0,2.5-1.121,2.5-2.5c0-0.363-0.08-0.718-0.232-1.044C12.428,2.693,16.129,1.5,20,1.5 c10.201,0,18.5,8.299,18.5,18.5c0,2.589-0.541,5.111-1.607,7.502C35.564,27.559,34.5,28.657,34.5,30 c0,0.391,0.091,0.77,0.265,1.115C31.273,35.745,25.778,38.5,20,38.5z"></path><path fill="#a3b7cc" d="M20,2c9.925,0,18,8.075,18,18c0,2.422-0.487,4.785-1.448,7.033C35.109,27.25,34,28.498,34,30 c0,0.36,0.064,0.712,0.189,1.045C30.784,35.411,25.525,38,20,38c-9.925,0-18-8.075-18-18c0-4.069,1.391-8.016,3.932-11.201 C6.272,8.931,6.634,9,7,9c1.654,0,3-1.346,3-3c0-0.293-0.043-0.581-0.127-0.858C12.878,3.084,16.362,2,20,2 M20,1 c-4.28,0-8.216,1.432-11.392,3.82C8.851,5.152,9,5.557,9,6c0,1.105-0.895,2-2,2C6.503,8,6.054,7.812,5.704,7.512 C2.783,10.853,1,15.214,1,20c0,10.493,8.507,19,19,19c6.324,0,11.911-3.102,15.364-7.854C35.136,30.821,35,30.427,35,30 c0-1.105,0.895-2,2-2c0.07,0,0.137,0.014,0.206,0.021C38.345,25.581,39,22.87,39,20C39,9.507,30.493,1,20,1L20,1z"></path><path fill="#b0c1d4" d="M13.5 24.5A3 3 0 1 0 13.5 30.5A3 3 0 1 0 13.5 24.5Z"></path><path fill="#a3b7cc" d="M13.5,25c1.378,0,2.5,1.121,2.5,2.5S14.878,30,13.5,30S11,28.879,11,27.5S12.122,25,13.5,25 M13.5,24c-1.933,0-3.5,1.567-3.5,3.5s1.567,3.5,3.5,3.5s3.5-1.567,3.5-3.5S15.433,24,13.5,24L13.5,24z"></path><path fill="#b0c1d4" d="M22 14.5A2.5 2.5 0 1 0 22 19.5A2.5 2.5 0 1 0 22 14.5Z"></path><path fill="#a3b7cc" d="M22,15c1.103,0,2,0.897,2,2s-0.897,2-2,2s-2-0.897-2-2S20.897,15,22,15 M22,14c-1.657,0-3,1.343-3,3 s1.343,3,3,3s3-1.343,3-3S23.657,14,22,14L22,14z"></path><g><path fill="#b0c1d4" d="M11 12.5A1.5 1.5 0 1 0 11 15.5A1.5 1.5 0 1 0 11 12.5Z"></path><path fill="#a3b7cc" d="M11,13c0.551,0,1,0.449,1,1s-0.449,1-1,1s-1-0.449-1-1S10.449,13,11,13 M11,12c-1.105,0-2,0.895-2,2 s0.895,2,2,2s2-0.895,2-2S12.105,12,11,12L11,12z"></path></g><path fill="#a3b7cc" d="M35,30c0-1.105,0.895-2,2-2c0.07,0,0.136,0.014,0.205,0.021c1.14-2.44,1.795-5.152,1.795-8.023   c0-10.493-8.507-19-19-19c-2.237,0-4.375,0.407-6.369,1.117c5.928,0.651,10.974,4.187,13.743,9.164C27.714,11.107,28.093,11,28.5,11 c1.381,0,2.5,1.119,2.5,2.5c0,1.151-0.783,2.111-1.842,2.401c0.085,0.366,0.158,0.737,0.223,1.111C29.421,17.009,29.459,17,29.5,17  c0.828,0,1.5,0.672,1.5,1.5c0,0.778-0.595,1.411-1.354,1.485c0,0.005,0,0.01,0,0.015c0,9.267-7.005,16.891-16.007,17.884    c1.991,0.708,4.126,1.114,6.36,1.114c6.323,0,11.91-3.102,15.363-7.853C35.136,30.82,35,30.427,35,30z"></path></svg>