<svg xmlns="http://www.w3.org/2000/svg" x="0px" y="0px"
width="64" height="64"
viewBox="0 -4 64 64"
style=" fill:#000000;"><path fill="#72caaf" d="M57,9v46c0,1.1-0.9,2-2,2H9c-1.1,0-2-0.9-2-2V9c0-1.1,0.9-2,2-2h46C56.1,7,57,7.9,57,9z"></path><path fill="#f9dd8f" d="M43.27 13.04c-2.83.28-5.25 2.35-6.01 5.09-.31 1.11-.33 2.19-.13 3.19.13.67-.05 1.36-.54 1.84L23.16 36.59c-.48.49-1.17.67-1.84.54-1-.2-2.08-.18-3.19.13-2.74.76-4.81 3.18-5.09 6.01-.45 4.44 3.25 8.14 7.69 7.69 2.83-.29 5.25-2.35 6.01-5.09.31-1.11.33-2.19.13-3.19-.13-.67.05-1.36.54-1.84l13.43-13.43c.48-.49 1.17-.67 1.84-.54 1.17.23 2.44.17 3.77-.31 2.25-.82 3.96-2.81 4.41-5.16C51.78 16.67 47.93 12.56 43.27 13.04zM20 46c-1.1 0-2-.9-2-2 0-1.1.9-2 2-2s2 .9 2 2C22 45.1 21.1 46 20 46zM44 22c-1.1 0-2-.9-2-2 0-1.1.9-2 2-2s2 .9 2 2C46 21.1 45.1 22 44 22zM51.41 47.16c-.49-.48-.67-1.17-.54-1.84.2-1 .18-2.08-.13-3.19-.76-2.74-3.18-4.81-6.01-5.09-4.44-.45-8.14 3.25-7.69 7.69.29 2.83 2.35 5.25 5.09 6.01 1.11.31 2.19.33 3.19.13.67-.13 1.36.05 1.84.54L52.75 57H55c1.1 0 2-.9 2-2v-2.25L51.41 47.16zM44 46c-1.1 0-2-.9-2-2 0-1.1.9-2 2-2s2 .9 2 2C46 45.1 45.1 46 44 46zM26.96 19.27c-.28-2.83-2.35-5.25-5.09-6.01-1.11-.31-2.19-.33-3.19-.13-.67.13-1.36-.05-1.84-.54L11.25 7H9C7.9 7 7 7.9 7 9v2.25l5.59 5.59c.49.48.67 1.17.54 1.84-.23 1.17-.17 2.44.31 3.77.82 2.25 2.81 3.96 5.16 4.41C23.33 27.78 27.44 23.93 26.96 19.27zM20 22c-1.1 0-2-.9-2-2 0-1.1.9-2 2-2s2 .9 2 2C22 21.1 21.1 22 20 22z"></path><path fill="#8d6c9f" d="M55,6H9C7.346,6,6,7.346,6,9v46c0,1.654,1.346,3,3,3h46c1.654,0,3-1.346,3-3V9 C58,7.346,56.654,6,55,6z M56,55c0,0.552-0.448,1-1,1h-1.828l-5.302-5.301c-0.705-0.705-1.733-1.008-2.744-0.81 c-1.073,0.211-2.158,0.118-3.229-0.271c-1.942-0.708-3.391-2.397-3.78-4.41c-0.372-1.922,0.157-3.837,1.452-5.254 c1.295-1.416,3.137-2.119,5.062-1.922c2.423,0.245,4.491,1.998,5.146,4.362c0.252,0.908,0.29,1.827,0.112,2.732 c-0.198,1.013,0.104,2.038,0.81,2.743l2.594,2.595c0.391,0.391,1.023,0.391,1.414,0s0.391-1.023,0-1.414l-2.594-2.595 c-0.233-0.233-0.331-0.587-0.261-0.945c0.237-1.212,0.188-2.44-0.147-3.651c-0.874-3.151-3.636-5.489-6.873-5.817 c-2.562-0.26-5.014,0.676-6.739,2.563s-2.433,4.434-1.938,6.982c0.521,2.698,2.46,4.962,5.058,5.909 c1.42,0.518,2.866,0.636,4.298,0.355c0.36-0.069,0.713,0.027,0.946,0.261L50.343,56H9c-0.552,0-1-0.448-1-1V34c0.553,0,1-0.447,1-1 v-2c0-0.553-0.447-1-1-1V9c0-0.552,0.448-1,1-1h1.828l5.302,5.301c0.705,0.704,1.734,1.007,2.744,0.81 c0.905-0.179,1.825-0.141,2.731,0.112c2.364,0.655,4.117,2.724,4.362,5.147c0.185,1.816-0.444,3.592-1.725,4.873 c-1.281,1.28-3.053,1.915-4.873,1.725c-2.424-0.245-4.492-1.998-5.147-4.362c-0.252-0.908-0.29-1.827-0.112-2.732 c0.198-1.013-0.104-2.038-0.81-2.743l-2.594-2.595c-0.391-0.391-1.023-0.391-1.414,0s-0.391,1.023,0,1.414l2.594,2.595 c0.233,0.233,0.331,0.587,0.261,0.945c-0.237,1.212-0.188,2.44,0.147,3.651c0.874,3.151,3.637,5.489,6.874,5.817 C19.445,27.985,19.721,28,19.994,28c2.123,0,4.15-0.831,5.663-2.343c1.707-1.708,2.546-4.072,2.301-6.488 c-0.328-3.237-2.666-6-5.817-6.874c-1.212-0.335-2.439-0.385-3.65-0.147c-0.359,0.069-0.713-0.027-0.946-0.261L13.657,8H55 c0.552,0,1,0.448,1,1v21c-0.553,0-1,0.447-1,1v2c0,0.553,0.447,1,1,1V55z"></path><path fill="#8d6c9f" d="M44 17c-1.654 0-3 1.346-3 3s1.346 3 3 3 3-1.346 3-3S45.654 17 44 17zM44 21c-.552 0-1-.448-1-1s.448-1 1-1 1 .448 1 1S44.552 21 44 21zM44 41c-1.654 0-3 1.346-3 3s1.346 3 3 3 3-1.346 3-3S45.654 41 44 41zM44 45c-.552 0-1-.448-1-1s.448-1 1-1 1 .448 1 1S44.552 45 44 45zM20 23c1.654 0 3-1.346 3-3s-1.346-3-3-3-3 1.346-3 3S18.346 23 20 23zM20 19c.552 0 1 .448 1 1s-.448 1-1 1-1-.448-1-1S19.448 19 20 19zM20 41c-1.654 0-3 1.346-3 3s1.346 3 3 3 3-1.346 3-3S21.654 41 20 41zM20 45c-.552 0-1-.448-1-1s.448-1 1-1 1 .448 1 1S20.552 45 20 45z"></path><path fill="#8d6c9f" d="M49.907 14.605c-1.726-1.888-4.182-2.82-6.739-2.563-3.237.328-5.999 2.666-6.873 5.817-.336 1.211-.385 2.439-.147 3.65.07.359-.027.713-.261.946L22.456 35.887c-.233.233-.589.329-.945.261-1.212-.238-2.439-.188-3.651.147-3.151.874-5.489 3.637-5.817 6.874-.244 2.417.595 4.783 2.304 6.49C15.857 51.17 17.885 52 20.006 52c.275 0 .553-.014.83-.042 3.235-.33 5.996-2.669 6.87-5.82.335-1.21.384-2.438.146-3.647-.07-.359.027-.713.261-.946l13.431-13.431c.233-.233.589-.33.945-.261 1.434.28 2.879.161 4.299-.355 2.598-.947 4.536-3.211 5.058-5.908C52.34 19.039 51.633 16.493 49.907 14.605zM49.883 21.209c-.39 2.012-1.838 3.701-3.78 4.409-1.072.391-2.159.48-3.229.271-1.013-.198-2.038.105-2.743.81L26.699 40.13c-.705.705-1.008 1.73-.81 2.744.178.903.14 1.822-.111 2.729-.655 2.363-2.723 4.117-5.146 4.364-1.819.186-3.593-.442-4.874-1.724-1.281-1.28-1.91-3.057-1.727-4.874.245-2.424 1.998-4.492 4.362-5.147C18.928 38.074 19.465 38 20 38c.377 0 .753.037 1.127.11 1.014.2 2.039-.105 2.743-.81L37.301 23.87c.705-.705 1.008-1.73.81-2.744-.178-.904-.14-1.823.112-2.731.655-2.364 2.724-4.117 5.146-4.362 1.916-.195 3.767.505 5.062 1.922S50.255 19.286 49.883 21.209zM51 30c-.553 0-1 .447-1 1v2c0 .553.447 1 1 1s1-.447 1-1v-2C52 30.447 51.553 30 51 30z"></path><path fill="#8d6c9f" d="M46 30c-.553 0-1 .447-1 1v2c0 .553.447 1 1 1s1-.447 1-1v-2C47 30.447 46.553 30 46 30zM41 30c-.553 0-1 .447-1 1v2c0 .553.447 1 1 1s1-.447 1-1v-2C42 30.447 41.553 30 41 30zM23 34c.553 0 1-.447 1-1v-2c0-.553-.447-1-1-1s-1 .447-1 1v2C22 33.553 22.447 34 23 34zM18 34c.553 0 1-.447 1-1v-2c0-.553-.447-1-1-1s-1 .447-1 1v2C17 33.553 17.447 34 18 34zM13 34c.553 0 1-.447 1-1v-2c0-.553-.447-1-1-1s-1 .447-1 1v2C12 33.553 12.447 34 13 34z"></path></svg>