<?xml version="1.0" encoding="UTF-8" standalone="no"?>
<svg
   x="0px"
   y="0px"
   width="64"
   height="64"
   viewBox="0 -4 64 64"
   style=" fill:#000000;"
   version="1.1"
   id="svg144"
   sodipodi:docname="pcb.svg"
   inkscape:version="1.2 (dc2aeda, 2022-05-15)"
   xmlns:inkscape="http://www.inkscape.org/namespaces/inkscape"
   xmlns:sodipodi="http://sodipodi.sourceforge.net/DTD/sodipodi-0.dtd"
   xmlns="http://www.w3.org/2000/svg"
   xmlns:svg="http://www.w3.org/2000/svg">
  <defs
     id="defs148" />
  <sodipodi:namedview
     id="namedview146"
     pagecolor="#ffffff"
     bordercolor="#666666"
     borderopacity="1.0"
     inkscape:showpageshadow="2"
     inkscape:pageopacity="0.0"
     inkscape:pagecheckerboard="0"
     inkscape:deskcolor="#d1d1d1"
     showgrid="false"
     inkscape:zoom="11.546493"
     inkscape:cx="31.957755"
     inkscape:cy="39.535813"
     inkscape:window-width="1800"
     inkscape:window-height="1097"
     inkscape:window-x="0"
     inkscape:window-y="44"
     inkscape:window-maximized="1"
     inkscape:current-layer="svg144" />
  <path
     fill="#72caaf"
     d="M 62.76923,-0.30769229 V 56.307692 c 0,1.353847 -1.107692,2.461539 -2.461538,2.461539 H 3.6923076 c -1.3538461,0 -2.4615384,-1.107692 -2.4615384,-2.461539 V -0.30769229 c 0,-1.35384611 1.1076923,-2.46153841 2.4615384,-2.46153841 H 60.307692 c 1.353846,0 2.461538,1.1076923 2.461538,2.46153841 z"
     id="path132"
     style="stroke-width:1.23076" />
  <path
     fill="#f9dd8f"
     d="M 45.870768,4.6646154 C 42.387692,5.0092307 39.40923,7.556923 38.473846,10.92923 c -0.381539,1.366155 -0.406155,2.695386 -0.16,3.926155 0.16,0.824615 -0.06155,1.673845 -0.664615,2.264615 L 21.119999,33.649231 c -0.590769,0.603076 -1.439999,0.824615 -2.264615,0.664614 -1.230769,-0.246153 -2.559999,-0.221538 -3.926154,0.160001 -3.372307,0.935385 -5.9199993,3.913846 -6.2646147,7.396924 -0.5538461,5.464615 3.9999997,10.018461 9.4646147,9.464615 3.483078,-0.356923 6.461538,-2.892308 7.396924,-6.264616 0.381538,-1.366153 0.406153,-2.695383 0.159999,-3.926153 -0.159999,-0.824615 0.06155,-1.673847 0.664616,-2.264615 L 42.88,22.350769 c 0.590768,-0.603077 1.439999,-0.824616 2.264616,-0.664616 1.439999,0.283078 3.003076,0.209231 4.639999,-0.381538 2.769231,-1.009231 4.873846,-3.458461 5.427693,-6.350768 C 56.344616,9.1323076 51.606154,4.0738461 45.870768,4.6646154 Z M 17.230769,45.230769 c -1.353846,0 -2.461539,-1.107692 -2.461539,-2.461538 0,-1.353846 1.107693,-2.461538 2.461539,-2.461538 1.353847,0 2.461539,1.107692 2.461539,2.461538 0,1.353846 -1.107692,2.461538 -2.461539,2.461538 z M 46.769231,15.692307 c -1.353847,0 -2.461539,-1.107692 -2.461539,-2.461538 0,-1.353846 1.107692,-2.461538 2.461539,-2.461538 1.353845,0 2.461538,1.107692 2.461538,2.461538 0,1.353846 -1.107693,2.461538 -2.461538,2.461538 z m 9.119999,30.966155 c -0.603077,-0.59077 -0.824615,-1.440002 -0.664615,-2.264616 0.246154,-1.230769 0.221538,-2.559999 -0.16,-3.926154 -0.935384,-3.372307 -3.913846,-5.92 -7.396923,-6.264615 -5.464615,-0.553845 -10.018461,4 -9.464615,9.464616 0.356922,3.483077 2.892307,6.461538 6.264616,7.396923 1.366153,0.381539 2.695383,0.406153 3.926153,0.16 0.824615,-0.16 1.673846,0.06154 2.264615,0.664615 l 6.88,6.88 h 2.769231 c 1.353846,0 2.461538,-1.107692 2.461538,-2.461539 v -2.76923 z m -9.119999,-1.427693 c -1.353847,0 -2.461539,-1.107692 -2.461539,-2.461538 0,-1.353846 1.107692,-2.461538 2.461539,-2.461538 1.353845,0 2.461538,1.107692 2.461538,2.461538 0,1.353846 -1.107693,2.461538 -2.461538,2.461538 z M 25.796923,12.332307 C 25.452306,8.8492307 22.904615,5.8707692 19.532307,4.9353846 c -1.366154,-0.3815384 -2.695385,-0.4061538 -3.926154,-0.16 -0.824614,0.16 -1.673845,-0.061538 -2.264614,-0.6646153 l -6.8800006,-6.88 H 3.6923076 c -1.3538461,0 -2.4615384,1.1076923 -2.4615384,2.46153841 V 2.4615385 l 6.88,6.88 c 0.6030769,0.590769 0.8246154,1.4399985 0.6646153,2.2646145 -0.2830769,1.44 -0.2092307,3.003077 0.3815385,4.64 1.00923,2.769231 3.458462,4.873846 6.35077,5.427693 5.821536,1.132307 10.88,-3.606154 10.28923,-9.341539 z m -8.566154,3.36 c -1.353846,0 -2.461539,-1.107692 -2.461539,-2.461538 0,-1.353846 1.107693,-2.461538 2.461539,-2.461538 1.353847,0 2.461539,1.107692 2.461539,2.461538 0,1.353846 -1.107692,2.461538 -2.461539,2.461538 z"
     id="path134"
     style="stroke-width:1.23076" />
  <path
     fill="#8d6c9f"
     d="M 60.307692,-4 H 3.6923076 C 1.6566154,-4 0,-2.3433846 0,-0.30769229 V 56.307692 C 0,58.343385 1.6566154,60 3.6923076,60 H 60.307692 C 62.343385,60 64,58.343384 64,56.307692 V -0.30769229 C 64,-2.3433846 62.343385,-4 60.307692,-4 Z m 1.230769,60.307691 c 0,0.679386 -0.551384,1.23077 -1.230769,1.23077 h -2.249846 l -6.52554,-6.524308 c -0.86769,-0.867692 -2.132922,-1.240616 -3.37723,-0.996923 -1.320615,0.259693 -2.656,0.145231 -3.974153,-0.333538 -2.390155,-0.871384 -4.173539,-2.950153 -4.652307,-5.427692 -0.457847,-2.365539 0.19323,-4.722462 1.787076,-6.466462 1.593846,-1.74277 3.860923,-2.607999 6.230153,-2.365538 2.982155,0.301538 5.527385,2.459077 6.33354,5.368616 0.310153,1.117539 0.356923,2.248615 0.137845,3.36246 -0.243691,1.24677 0.128001,2.508308 0.996924,3.376 l 3.192615,3.193846 c 0.48123,0.481231 1.259077,0.481231 1.740307,0 0.481231,-0.481229 0.481231,-1.259077 0,-1.740307 L 56.754461,45.790769 C 56.467693,45.504 56.347076,45.068307 56.433231,44.627692 56.724923,43.136 56.664615,41.624614 56.252308,40.134153 55.176615,36.255999 51.77723,33.378461 47.79323,32.974769 c -3.153231,-0.320001 -6.171077,0.832 -8.294154,3.154461 -2.123076,2.322462 -2.994461,5.457231 -2.385231,8.593231 0.641232,3.320616 3.027693,6.107077 6.225232,7.272616 1.747692,0.637538 3.527384,0.782769 5.289846,0.436923 0.443077,-0.08492 0.877538,0.03323 1.164307,0.32123 l 4.782771,4.785231 H 3.6923076 c -0.6793845,0 -1.2307691,-0.551384 -1.2307691,-1.23077 V 30.461538 c 0.6806154,0 1.2307691,-0.550154 1.2307691,-1.230769 V 26.76923 c 0,-0.680614 -0.5501537,-1.230769 -1.2307691,-1.230769 V -0.30769229 c 0,-0.67938461 0.5513846,-1.23076921 1.2307691,-1.23076921 h 2.2498463 l 6.5255371,6.5243076 c 0.867693,0.8664617 2.134155,1.2393846 3.377231,0.996923 1.113846,-0.2203075 2.246155,-0.1735383 3.361231,0.1378462 2.909539,0.8061539 5.067077,3.3526155 5.368615,6.3347697 0.227693,2.235076 -0.546461,4.420922 -2.123077,5.997537 -1.576615,1.575385 -3.757538,2.356923 -5.997538,2.123077 C 13.470769,20.274461 10.925538,18.116923 10.119384,15.207385 9.8092307,14.089845 9.7624616,12.958769 9.9815383,11.844922 10.22523,10.598153 9.8535385,9.3366154 8.9846153,8.4689231 L 5.7919999,5.2750768 c -0.4812308,-0.4812307 -1.2590768,-0.4812307 -1.7403077,0 -0.4812307,0.481231 -0.4812307,1.259077 0,1.7403078 l 3.1926155,3.1938464 c 0.2867692,0.286769 0.4073846,0.722462 0.3212308,1.163076 -0.2916924,1.491694 -0.2313847,3.003076 0.180923,4.493538 1.0756923,3.878154 4.4763065,6.755693 8.4603075,7.159385 0.340923,0.03324 0.680616,0.05169 1.016615,0.05169 2.612923,0 5.107692,-1.02277 6.969847,-2.883692 2.100923,-2.102155 3.133539,-5.011693 2.832,-7.985231 C 26.621537,8.224001 23.743999,4.8233856 19.865846,3.7476933 18.374152,3.3353856 16.864,3.2738472 15.373538,3.5667703 14.931692,3.6516939 14.496,3.5335394 14.20923,3.2455396 L 9.424,-1.5384615 h 50.883692 c 0.679385,0 1.230769,0.5513846 1.230769,1.23076921 V 25.538461 c -0.680616,0 -1.230769,0.550154 -1.230769,1.230769 v 2.461539 c 0,0.680615 0.550153,1.230769 1.230769,1.230769 z"
     id="path136"
     style="stroke-width:1.23076" />
  <path
     fill="#8d6c9f"
     d="m 46.769231,9.5384616 c -2.035693,0 -3.692309,1.6566144 -3.692309,3.6923084 0,2.035691 1.656616,3.692306 3.692309,3.692306 2.035692,0 3.692307,-1.656614 3.692307,-3.692306 0,-2.035693 -1.656615,-3.6923084 -3.692307,-3.6923084 z m 0,4.9230774 c -0.679385,0 -1.23077,-0.551385 -1.23077,-1.230769 C 45.538461,12.551385 46.089846,12 46.769231,12 47.448615,12 48,12.551385 48,13.23077 c 0,0.679384 -0.551385,1.230769 -1.230769,1.230769 z m 0,24.615384 c -2.035693,0 -3.692309,1.656616 -3.692309,3.692307 0,2.035693 1.656616,3.692308 3.692309,3.692308 2.035692,0 3.692307,-1.656615 3.692307,-3.692308 0,-2.035691 -1.656615,-3.692307 -3.692307,-3.692307 z m 0,4.923077 c -0.679385,0 -1.23077,-0.551386 -1.23077,-1.23077 0,-0.679384 0.551385,-1.230769 1.23077,-1.230769 C 47.448615,41.538461 48,42.089846 48,42.76923 48,43.448614 47.448615,44 46.769231,44 Z M 17.230769,16.923076 c 2.035692,0 3.692307,-1.656614 3.692307,-3.692306 0,-2.035693 -1.656615,-3.6923084 -3.692307,-3.6923084 -2.035693,0 -3.692307,1.6566154 -3.692307,3.6923084 0,2.035692 1.656614,3.692306 3.692307,3.692306 z m 0,-4.923076 c 0.679385,0 1.23077,0.551385 1.23077,1.23077 0,0.679384 -0.551385,1.230769 -1.23077,1.230769 C 16.551385,14.461539 16,13.910154 16,13.23077 16,12.551385 16.551385,12 17.230769,12 Z m 0,27.076924 c -2.035693,0 -3.692307,1.656615 -3.692307,3.692307 0,2.035693 1.656614,3.692308 3.692307,3.692308 2.035692,0 3.692307,-1.656616 3.692307,-3.692308 0,-2.035692 -1.656615,-3.692307 -3.692307,-3.692307 z m 0,4.923076 C 16.551385,44 16,43.448615 16,42.769231 c 0,-0.679384 0.551385,-1.230769 1.230769,-1.230769 0.679385,0 1.23077,0.551385 1.23077,1.230769 0,0.679384 -0.551385,1.230769 -1.23077,1.230769 z"
     id="path138"
     style="stroke-width:1.23076" />
  <path
     fill="#8d6c9f"
     d="M 54.039384,6.5907692 C 51.915076,4.2670769 48.892308,3.1200001 45.74523,3.4363077 41.76123,3.84 38.361846,6.7175384 37.286154,10.595692 36.872615,12.086153 36.812307,13.597538 37.10523,15.087999 37.19138,15.529846 37.072,15.965538 36.784,16.252308 L 20.253537,32.784001 c -0.286768,0.286768 -0.724923,0.404922 -1.163076,0.32123 -1.491692,-0.292922 -3.001846,-0.231384 -4.493538,0.180924 -3.878154,1.075692 -6.7556923,4.476306 -7.1593845,8.460306 -0.3003078,2.974771 0.7323077,5.886771 2.8356915,7.987693 1.858461,1.859692 4.354462,2.881231 6.964923,2.881231 0.338462,0 0.680616,-0.01723 1.021539,-0.05169 3.981538,-0.406154 7.379692,-3.284923 8.455384,-7.163077 0.412309,-1.48923 0.472616,-3.000616 0.179693,-4.488616 -0.08615,-0.441847 0.03323,-0.877539 0.321231,-1.164307 L 43.746461,23.217231 c 0.286769,-0.28677 0.724923,-0.406156 1.163077,-0.321231 1.764923,0.344615 3.543385,0.198155 5.291077,-0.436923 3.197538,-1.165539 5.582769,-3.952001 6.22523,-7.271384 C 57.033846,12.048 56.163692,8.9144615 54.039384,6.5907692 Z m -0.02954,8.1280008 c -0.479999,2.476307 -2.262154,4.555075 -4.652307,5.426461 -1.319385,0.481229 -2.657232,0.590769 -3.974154,0.333538 -1.24677,-0.243693 -2.508307,0.129231 -3.376,0.996923 L 25.475692,38.006154 c -0.867693,0.867692 -1.240615,2.12923 -0.996922,3.37723 0.219075,1.111385 0.172306,2.242461 -0.136616,3.358769 C 23.536,47.650461 20.990769,49.80923 18.008615,50.113231 15.769846,50.342154 13.586461,49.56923 12.009845,47.991384 10.433231,46.416 9.6590769,44.228923 9.8843077,41.992615 10.185846,39.00923 12.343383,36.463999 15.252922,35.657846 c 0.658463,-0.182154 1.319385,-0.273232 1.977847,-0.273232 0.464,0 0.92677,0.04553 1.387077,0.135386 1.248,0.246153 2.509539,-0.129231 3.376,-0.996923 L 38.524308,17.993846 C 39.392,17.126154 39.764923,15.864615 39.52123,14.616615 39.302153,13.504 39.348922,12.372923 39.659077,11.255384 c 0.806154,-2.9095378 3.352615,-5.0670762 6.333538,-5.3686147 2.358153,-0.2400001 4.636308,0.6215384 6.230153,2.3655384 1.593847,1.7439998 2.244925,4.0996933 1.787076,6.4664623 z m 1.374769,10.819691 c -0.680616,0 -1.23077,0.550154 -1.23077,1.230769 v 2.461539 c 0,0.680615 0.550154,1.230769 1.23077,1.230769 0.680615,0 1.230769,-0.550154 1.230769,-1.230769 V 26.76923 c 0,-0.680614 -0.550154,-1.230769 -1.230769,-1.230769 z"
     id="path140"
     style="stroke-width:1.23076" />
  <path
     fill="#8d6c9f"
     d="M 49.230769,25.538461 C 48.550153,25.538461 48,26.088615 48,26.76923 v 2.461539 c 0,0.680615 0.550153,1.230769 1.230769,1.230769 0.680615,0 1.230769,-0.550154 1.230769,-1.230769 V 26.76923 c 0,-0.680614 -0.550154,-1.230769 -1.230769,-1.230769 z m -6.153847,0 c -0.680615,0 -1.230768,0.550154 -1.230768,1.230769 v 2.461539 c 0,0.680615 0.550153,1.230769 1.230768,1.230769 0.680616,0 1.23077,-0.550154 1.23077,-1.230769 V 26.76923 c 0,-0.680614 -0.550154,-1.230769 -1.23077,-1.230769 z m -22.153846,4.923077 c 0.680616,0 1.23077,-0.550154 1.23077,-1.230769 V 26.76923 c 0,-0.680614 -0.550154,-1.230769 -1.23077,-1.230769 -0.680615,0 -1.230768,0.550154 -1.230768,1.230769 v 2.461539 c 0,0.680615 0.550153,1.230769 1.230768,1.230769 z m -6.153846,0 C 15.449846,30.461538 16,29.911384 16,29.230769 V 26.76923 c 0,-0.680614 -0.550154,-1.230769 -1.23077,-1.230769 -0.680615,0 -1.230768,0.550154 -1.230768,1.230769 v 2.461539 c 0,0.680615 0.550153,1.230769 1.230768,1.230769 z m -6.1538454,0 c 0.6806154,0 1.2307692,-0.550154 1.2307692,-1.230769 V 26.76923 c 0,-0.680614 -0.5501538,-1.230769 -1.2307692,-1.230769 -0.6806154,0 -1.2307693,0.550154 -1.2307693,1.230769 v 2.461539 c 0,0.680615 0.5501539,1.230769 1.2307693,1.230769 z"
     id="path142"
     style="stroke-width:1.23076" />
</svg>
