<?xml version="1.0" encoding="UTF-8"?>
<svg width="824px" height="824px" viewBox="0 0 824 824" version="1.1" xmlns="http://www.w3.org/2000/svg" xmlns:xlink="http://www.w3.org/1999/xlink">
    <title>rcmd app icon</title>
    <defs>
        <filter x="-23.2%" y="-21.5%" width="146.3%" height="142.9%" filterUnits="objectBoundingBox" id="filter-1">
            <feOffset dx="-10" dy="16" in="SourceAlpha" result="shadowOffsetOuter1"></feOffset>
            <feGaussianBlur stdDeviation="20" in="shadowOffsetOuter1" result="shadowBlurOuter1"></feGaussianBlur>
            <feColorMatrix values="0 0 0 0 0   0 0 0 0 0   0 0 0 0 0  0 0 0 0.231178977 0" type="matrix" in="shadowBlurOuter1" result="shadowMatrixOuter1"></feColorMatrix>
            <feMerge>
                <feMergeNode in="shadowMatrixOuter1"></feMergeNode>
                <feMergeNode in="SourceGraphic"></feMergeNode>
            </feMerge>
        </filter>
    </defs>
    <g id="rcmd-app-icon" stroke="none" stroke-width="1" fill="none" fill-rule="evenodd">
        <path d="M192.29139,-3.67874948e-14 L631.70861,7.76880231e-15 C698.572515,-4.51389787e-15 722.818983,6.96192084 747.263428,20.0349528 C771.707872,33.1079847 790.892015,52.2921278 803.965047,76.7365722 C817.038079,101.181017 824,125.427485 824,192.29139 L824,631.70861 C824,698.572515 817.038079,722.818983 803.965047,747.263428 C790.892015,771.707872 771.707872,790.892015 747.263428,803.965047 C722.818983,817.038079 698.572515,824 631.70861,824 L192.29139,824 C125.427485,824 101.181017,817.038079 76.7365722,803.965047 C52.2921278,790.892015 33.1079847,771.707872 20.0349528,747.263428 C6.96192084,722.818983 1.98699612e-14,698.572515 -3.4197894e-14,631.70861 L5.17920154e-15,192.29139 C-3.00926524e-15,125.427485 6.96192084,101.181017 20.0349528,76.7365722 C33.1079847,52.2921278 52.2921278,33.1079847 76.7365722,20.0349528 C101.181017,6.96192084 125.427485,2.13745939e-14 192.29139,-3.67874948e-14 Z" id="Rectangle" fill="#363434"></path>
        <g id="⌘" filter="url(#filter-1)" transform="translate(188.592315, 165.737130)" fill-rule="nonzero">
            <path d="M149.240303,229.702223 L100.600376,229.031984 C73.9107741,228.661332 50.7692144,217.450337 31.1681047,195.093132 C11.5568727,172.324096 1.19658476,144.909208 0.0948327669,113.158815 C-1.00691923,81.4084219 7.49116806,55.316245 25.5966864,35.1850469 C43.712327,15.4555656 66.1555815,7.40696385 92.9188581,10.7257249 C119.682135,14.0262137 142.935758,27.1967356 162.672085,49.9428497 C182.398224,72.2800966 192.768948,97.6275609 193.7919,126.290398 L195.656159,178.52641 L244.329589,180.486513 L242.499092,129.563972 C241.494665,101.62186 250.073944,78.6794699 268.24452,61.0243941 C286.425218,43.7508081 308.901002,36.8397031 335.664278,39.9927328 C362.427555,43.1274902 385.586126,54.8970762 405.132401,75.0242847 C424.668554,94.7655797 434.900456,117.128391 435.8357,142.400679 C436.770944,167.672967 428.144471,188.82738 409.963874,206.144293 C391.793398,223.837005 369.367156,232.650738 342.677554,232.300636 L294.037627,231.657352 L295.821056,280.918007 L344.427482,280.28462 C371.0987,279.939904 394.180981,288.818542 413.666682,306.633807 C433.142194,324.070761 443.343751,345.284257 444.278995,370.556546 C445.214239,395.828834 436.620295,418.191645 418.504755,437.93294 C400.399337,458.060149 378.051724,469.829735 351.454324,472.964492 C324.856923,476.117522 301.826522,469.206417 282.355527,451.932831 C262.87441,434.277755 252.627843,411.335365 251.623416,383.393253 L249.792919,332.470712 L201.220255,334.430815 L203.084514,386.666827 C204.107466,415.329664 195.52767,440.677128 177.352766,463.014375 C159.188052,485.760489 136.810816,498.931011 110.213416,502.2315 C83.6160152,505.550261 60.5530848,497.501659 41.0170327,477.772178 C21.4708583,457.64098 11.1430993,431.548803 10.0413473,399.79841 C8.93959529,368.048017 17.4025999,340.559631 35.4380032,317.645639 C53.4835958,295.146183 75.8458222,283.867935 102.51704,283.502985 L151.123466,282.843057 L149.240303,229.702223 Z M199.355996,282.194803 L247.962422,281.548171 L246.146005,231.017342 L197.506078,230.360607 L199.355996,282.194803 Z M147.35714,176.561389 L145.459379,123.00861 C144.943578,108.453239 139.753276,95.5678802 129.886552,84.2752922 C120.017263,72.8794653 108.332946,66.4949763 94.835523,65.1967258 C81.5880524,63.9189945 70.4050852,68.2343416 61.2885446,78.221247 C52.1745681,88.3095539 47.8855833,101.034267 48.419667,116.319147 C48.9638277,131.892421 54.171514,145.42086 64.0408026,156.826302 C73.9075271,168.127781 85.454522,174.013787 98.6837106,174.560983 L147.35714,176.561389 Z M292.254197,182.396696 L340.927627,184.316653 C354.406423,184.844756 365.718219,180.645567 374.86494,171.792101 C384.014225,163.034188 388.352545,152.232156 387.877978,139.314529 C387.403411,126.396902 382.187632,114.975642 372.228692,104.976368 C362.267155,94.8776631 350.661676,89.1870625 337.414206,87.9767164 C323.916783,86.7399449 312.592493,90.4592684 303.443259,99.2094297 C294.296589,108.055877 289.968457,119.261592 290.456942,132.754175 L292.254197,182.396696 Z M297.618311,330.560529 L299.415566,380.20305 C299.904051,393.695633 305.111088,404.832903 315.034754,413.542502 C324.955856,422.155879 336.507241,425.819696 349.690831,424.60854 C363.123167,423.378113 374.397626,417.746146 383.516105,407.782746 C392.637115,397.916191 396.959067,386.49996 396.480065,373.461608 C396.009933,360.664706 390.812959,349.926254 380.887194,341.173843 C370.958832,332.32463 359.392776,328.122234 346.190975,328.640572 L297.618311,330.560529 Z M153.021227,336.395836 L104.448563,338.396242 C91.2467622,338.943438 80.1030019,344.829444 71.0192055,356.130923 C61.9379734,367.536365 57.6703992,381.064804 58.2145599,396.638078 C58.7486436,411.922958 63.9324042,424.575742 73.7639438,434.52121 C83.5929529,444.36663 95.0983034,448.613154 108.281893,447.338243 C121.71423,446.042859 132.972532,439.730297 142.058697,428.474459 C151.147394,417.320521 155.43479,404.503986 154.918988,389.948615 L153.021227,336.395836 Z" fill-opacity="0.5" fill="#CE3043"></path>
            <path d="M171.240303,219.702223 L122.600376,219.031984 C95.9107741,218.661332 72.7692144,207.450337 53.1681047,185.093132 C33.5568727,162.324096 23.1965848,134.909208 22.0948328,103.158815 C20.9930808,71.4084219 29.4911681,45.316245 47.5966864,25.1850469 C65.712327,5.45556563 88.1555815,-2.59303615 114.918858,0.725724924 C141.682135,4.02621371 164.935758,17.1967356 184.672085,39.9428497 C204.398224,62.2800966 214.768948,87.6275609 215.7919,116.290398 L217.656159,168.52641 L266.329589,170.486513 L264.499092,119.563972 C263.494665,91.6218602 272.073944,68.6794699 290.24452,51.0243941 C308.425218,33.7508081 330.901002,26.8397031 357.664278,29.9927328 C384.427555,33.1274902 407.586126,44.8970762 427.132401,65.0242847 C446.668554,84.7655797 456.900456,107.128391 457.8357,132.400679 C458.770944,157.672967 450.144471,178.82738 431.963874,196.144293 C413.793398,213.837005 391.367156,222.650738 364.677554,222.300636 L316.037627,221.657352 L317.821056,270.918007 L366.427482,270.28462 C393.0987,269.939904 416.180981,278.818542 435.666682,296.633807 C455.142194,314.070761 465.343751,335.284257 466.278995,360.556546 C467.214239,385.828834 458.620295,408.191645 440.504755,427.93294 C422.399337,448.060149 400.051724,459.829735 373.454324,462.964492 C346.856923,466.117522 323.826522,459.206417 304.355527,441.932831 C284.87441,424.277755 274.627843,401.335365 273.623416,373.393253 L271.792919,322.470712 L223.220255,324.430815 L225.084514,376.666827 C226.107466,405.329664 217.52767,430.677128 199.352766,453.014375 C181.188052,475.760489 158.810816,488.931011 132.213416,492.2315 C105.616015,495.550261 82.5530848,487.501659 63.0170327,467.772178 C43.4708583,447.64098 33.1430993,421.548803 32.0413473,389.79841 C30.9395953,358.048017 39.4025999,330.559631 57.4380032,307.645639 C75.4835958,285.146183 97.8458222,273.867935 124.51704,273.502985 L173.123466,272.843057 L171.240303,219.702223 Z M221.355996,272.194803 L269.962422,271.548171 L268.146005,221.017342 L219.506078,220.360607 L221.355996,272.194803 Z M169.35714,166.561389 L167.459379,113.00861 C166.943578,98.4532391 161.753276,85.5678802 151.886552,74.2752922 C142.017263,62.8794653 130.332946,56.4949763 116.835523,55.1967258 C103.588052,53.9189945 92.4050852,58.2343416 83.2885446,68.221247 C74.1745681,78.3095539 69.8855833,91.034267 70.419667,106.319147 C70.9638277,121.892421 76.171514,135.42086 86.0408026,146.826302 C95.9075271,158.127781 107.454522,164.013787 120.683711,164.560983 L169.35714,166.561389 Z M314.254197,172.396696 L362.927627,174.316653 C376.406423,174.844756 387.718219,170.645567 396.86494,161.792101 C406.014225,153.034188 410.352545,142.232156 409.877978,129.314529 C409.403411,116.396902 404.187632,104.975642 394.228692,94.9763685 C384.267155,84.8776631 372.661676,79.1870625 359.414206,77.9767164 C345.916783,76.7399449 334.592493,80.4592684 325.443259,89.2094297 C316.296589,98.0558765 311.968457,109.261592 312.456942,122.754175 L314.254197,172.396696 Z M319.618311,320.560529 L321.415566,370.20305 C321.904051,383.695633 327.111088,394.832903 337.034754,403.542502 C346.955856,412.155879 358.507241,415.819696 371.690831,414.60854 C385.123167,413.378113 396.397626,407.746146 405.516105,397.782746 C414.637115,387.916191 418.959067,376.49996 418.480065,363.461608 C418.009933,350.664706 412.812959,339.926254 402.887194,331.173843 C392.958832,322.32463 381.392776,318.122234 368.190975,318.640572 L319.618311,320.560529 Z M175.021227,326.395836 L126.448563,328.396242 C113.246762,328.943438 102.103002,334.829444 93.0192055,346.130923 C83.9379734,357.536365 79.6703992,371.064804 80.2145599,386.638078 C80.7486436,401.922958 85.9324042,414.575742 95.7639438,424.52121 C105.592953,434.36663 117.098303,438.613154 130.281893,437.338243 C143.71423,436.042859 154.972532,429.730297 164.058697,418.474459 C173.147394,407.320521 177.43479,394.503986 176.918988,379.948615 L175.021227,326.395836 Z" fill="#FF2D47"></path>
        </g>
    </g>
</svg>