<?xml version="1.0" encoding="UTF-8"?>
<svg width="2316px" height="2316px" viewBox="0 0 2316 2316" version="1.1" xmlns="http://www.w3.org/2000/svg" xmlns:xlink="http://www.w3.org/1999/xlink">
    <title>sublime-text</title>
    <defs>
        <linearGradient x1="5.4699792%" y1="53.3227087%" x2="99.9498703%" y2="36.9840081%" id="linearGradient-1">
            <stop stop-color="#F89822" offset="23.3%"></stop>
            <stop stop-color="#C27818" offset="100%"></stop>
        </linearGradient>
    </defs>
    <g id="sublime-text" stroke="none" stroke-width="1" fill="none" fill-rule="evenodd">
        <rect fill="#FFFFFF" x="0" y="0" width="2316" height="2316"></rect>
        <path d="M388.736952,8 L1928.26305,8 C2060.65358,8 2108.66159,21.7846033 2157.06159,47.6692065 C2205.46159,73.5538098 2243.44619,111.538413 2269.33079,159.938413 C2295.2154,208.338413 2309,256.346419 2309,388.736952 L2309,1928.26305 C2309,2060.65358 2295.2154,2108.66159 2269.33079,2157.06159 C2243.44619,2205.46159 2205.46159,2243.44619 2157.06159,2269.33079 C2108.66159,2295.2154 2060.65358,2309 1928.26305,2309 L388.736952,2309 C256.346419,2309 208.338413,2295.2154 159.938413,2269.33079 C111.538413,2243.44619 73.5538098,2205.46159 47.6692065,2157.06159 C21.7846033,2108.66159 8,2060.65358 8,1928.26305 L8,388.736952 C8,256.346419 21.7846033,208.338413 47.6692065,159.938413 C73.5538098,111.538413 111.538413,73.5538098 159.938413,47.6692065 C208.338413,21.7846033 256.346419,8 388.736952,8 Z" id="Rectangle" fill="#484848"></path>
        <g transform="translate(557.000000, 377.000000)" fill-rule="nonzero">
            <path d="M34,361.609392 L1138.51145,11.0876422 C1138.51145,11.0876422 1216.93271,-30.0112692 1198.03602,46.0453369 L1200.87052,383.812252 C1200.87052,383.812252 1214.57062,433.414387 1146.54254,445.69682 L697.746189,586 L34,361.609392 Z" id="path139" fill="#F89820"></path>
            <path d="M33.1144765,361 C33.1144765,361 -10.3685744,371.401124 2.39275572,445.627326 L0.0295464279,771.371612 C0.0295464279,771.371612 -3.75158844,812.503329 74.2343181,829.050571 L1169.3455,1181.74322 C1169.3455,1181.74322 1206.21157,1196.39935 1201.95779,1151.01263 L1202.43043,787.918854 C1202.43043,787.918854 1212.82855,750.569364 1144.76813,725.98489 L697.176287,585.569719 L33.1144765,361 Z" id="path141" fill="#F89820"></path>
            <path d="M516.140337,971 L50.1634351,1113.31939 C50.1634351,1113.31939 -6.0751565,1115.21068 0.541148394,1220.64997 C7.15745329,1326.08925 0.0685551874,1538.38629 0.0685551874,1538.38629 C0.0685551874,1538.38629 4.79448725,1577.6305 58.6701128,1554.93505 L1163.59303,1202.20991 C1163.59303,1202.20991 1202.81827,1192.28065 1169.73674,1181.40575 C1136.65522,1171.00367 516.140337,971 516.140337,971 L516.140337,971 Z" id="path143" fill="url(#linearGradient-1)"></path>
        </g>
    </g>
</svg>