<svg xmlns="http://www.w3.org/2000/svg" x="0px" y="0px"
width="64" height="64"
viewBox="0 0 80 80"
style=" fill:#000000;"><path fill="#F7D04F" d="M35.354,67.588l-0.248-0.043c-1.557-0.275-3.117-0.694-4.637-1.246l-0.236-0.085l-8.674,5.727 l0.621-10.355l-0.191-0.162c-1.232-1.038-2.38-2.186-3.411-3.412l-0.162-0.192L8.06,58.441l5.727-8.673L13.7,49.531 c-0.552-1.523-0.971-3.083-1.245-4.637l-0.044-0.248L3.118,40l9.293-4.647l0.044-0.248c0.274-1.554,0.693-3.114,1.245-4.637 l0.086-0.236L8.06,21.559l10.355,0.622l0.162-0.192c1.032-1.228,2.18-2.375,3.411-3.412l0.191-0.162L21.559,8.059l8.674,5.727 l0.236-0.085c1.52-0.552,3.08-0.971,4.637-1.246l0.248-0.043L40,3.118l4.646,9.293l0.248,0.043 c1.557,0.275,3.117,0.694,4.637,1.246l0.236,0.085l8.674-5.727L57.82,18.415l0.191,0.162c1.231,1.036,2.379,2.184,3.411,3.412 l0.162,0.192l10.355-0.622l-5.727,8.673l0.086,0.236c0.552,1.522,0.971,3.083,1.245,4.637l0.044,0.248L76.882,40l-9.293,4.647 l-0.044,0.248c-0.274,1.553-0.693,3.113-1.245,4.637l-0.086,0.236l5.727,8.673l-10.355-0.622l-0.162,0.192 c-1.031,1.226-2.179,2.374-3.411,3.412l-0.191,0.162l0.621,10.355l-8.674-5.727l-0.236,0.085c-1.52,0.552-3.08,0.971-4.637,1.246 l-0.248,0.043L40,76.882L35.354,67.588z"></path><path fill="#FF781D" d="M40,4.236l4.087,8.174l0.225,0.45l0.495,0.088c1.529,0.27,3.061,0.681,4.554,1.223l0.472,0.171 l0.419-0.277l7.629-5.037l-0.547,9.107l-0.03,0.502l0.384,0.323c1.207,1.016,2.334,2.143,3.351,3.351l0.323,0.384l0.501-0.03 l9.107-0.547l-5.037,7.629l-0.277,0.419l0.171,0.473c0.541,1.493,0.953,3.025,1.223,4.553l0.088,0.495l0.45,0.225L75.764,40 l-8.174,4.087l-0.45,0.225l-0.088,0.495c-0.27,1.528-0.681,3.06-1.223,4.553l-0.171,0.473l0.277,0.419l5.037,7.629l-9.107-0.547 l-0.502-0.03l-0.323,0.384c-1.015,1.207-2.143,2.334-3.351,3.351l-0.384,0.324l0.03,0.501l0.547,9.107l-7.629-5.037l-0.419-0.277 l-0.473,0.171c-1.493,0.541-3.025,0.953-4.554,1.223l-0.495,0.088l-0.225,0.45L40,75.764l-4.087-8.174l-0.225-0.45l-0.495-0.088 c-1.529-0.27-3.061-0.682-4.554-1.223l-0.473-0.171l-0.419,0.277l-7.629,5.037l0.547-9.107l0.03-0.501l-0.384-0.324 c-1.208-1.017-2.336-2.145-3.351-3.351l-0.323-0.384l-0.502,0.03l-9.107,0.547l5.037-7.629l0.277-0.419l-0.171-0.473 c-0.541-1.493-0.953-3.025-1.223-4.553l-0.088-0.495l-0.45-0.225L4.236,40l8.174-4.087l0.45-0.225l0.088-0.495 c0.27-1.529,0.681-3.061,1.223-4.553l0.171-0.473l-0.277-0.419l-5.037-7.629l9.107,0.547l0.501,0.03l0.323-0.384 c1.016-1.208,2.144-2.335,3.351-3.351l0.384-0.323l-0.03-0.502l-0.547-9.107l7.629,5.037l0.419,0.277l0.472-0.171 c1.493-0.541,3.025-0.953,4.554-1.223l0.495-0.088l0.225-0.45L40,4.236 M40,2l-4.981,9.963c-1.627,0.287-3.201,0.717-4.721,1.268 L21,7.091l0.667,11.103c-1.255,1.056-2.416,2.217-3.472,3.472L7.091,21l6.139,9.298c-0.551,1.519-0.98,3.093-1.268,4.721L2,40 l9.963,4.981c0.287,1.627,0.716,3.201,1.268,4.72L7.091,59l11.103-0.666c1.056,1.255,2.218,2.416,3.472,3.472L21,72.909 l9.298-6.139c1.519,0.551,3.094,0.98,4.721,1.268L40,78l4.981-9.963c1.627-0.287,3.201-0.717,4.721-1.268L59,72.909l-0.667-11.103 c1.255-1.056,2.416-2.217,3.472-3.472L72.909,59l-6.139-9.298c0.551-1.519,0.98-3.093,1.268-4.72L78,40l-9.963-4.981 c-0.287-1.627-0.716-3.201-1.268-4.721L72.909,21l-11.103,0.666c-1.056-1.255-2.217-2.416-3.472-3.472L59,7.091l-9.298,6.139 c-1.519-0.551-3.093-0.98-4.721-1.268L40,2L40,2z"></path><path fill="#f5ce85" d="M40 20A20 20 0 1 0 40 60A20 20 0 1 0 40 20Z"></path></svg>